<?xml version="1.0" encoding="UTF-8" standalone="no"?>
<svg
   id="mdi-bus-marker"
   viewBox="0 0 24 24"
   version="1.1"
   sodipodi:docname="Pictogrammers-Material-Bus-marker2.svg"
   xml:space="preserve"
   inkscape:version="1.4 (86a8ad7, 2024-10-11)"
   xmlns:inkscape="http://www.inkscape.org/namespaces/inkscape"
   xmlns:sodipodi="http://sodipodi.sourceforge.net/DTD/sodipodi-0.dtd"
   xmlns="http://www.w3.org/2000/svg"
   xmlns:svg="http://www.w3.org/2000/svg"><defs
     id="defs1" /><sodipodi:namedview
     id="namedview1"
     pagecolor="#ffffff"
     bordercolor="#000000"
     borderopacity="0.25"
     inkscape:showpageshadow="2"
     inkscape:pageopacity="0.0"
     inkscape:pagecheckerboard="0"
     inkscape:deskcolor="#d1d1d1"
     inkscape:zoom="24.479167"
     inkscape:cx="3.2068085"
     inkscape:cy="7.4144681"
     inkscape:window-width="2560"
     inkscape:window-height="1377"
     inkscape:window-x="1912"
     inkscape:window-y="-8"
     inkscape:window-maximized="1"
     inkscape:current-layer="mdi-bus-marker" /><path
     id="path1"
     d="M 12,2 C 7.58,2 4,2.5 4,6 v 10 a 3,3 0 0 0 1,2.220703 V 20 a 1,1 0 0 0 1,1 h 1 a 1,1 0 0 0 1,-1 v -1 h 2.990234 c -0.02624,-0.03217 -0.05145,-0.0641 -0.07617,-0.09766 -0.08526,-0.118159 -0.163174,-0.241595 -0.240234,-0.365235 -0.07226,-0.118608 -0.137125,-0.241118 -0.203125,-0.363281 -0.08172,-0.155234 -0.167068,-0.309339 -0.236328,-0.470703 -0.03659,-0.08658 -0.06942,-0.175299 -0.101563,-0.263672 -0.0546,-0.03251 -0.109878,-0.08608 -0.1582026,-0.164062 -0.035533,-0.05734 -0.060262,-0.121614 -0.087891,-0.183594 -0.031942,-0.06954 -0.068668,-0.137951 -0.1015626,-0.207031 -0.047691,-0.09061 -0.076297,-0.18945 -0.1054687,-0.28711 -0.038945,-0.120774 -0.060131,-0.244454 -0.082031,-0.36914 -0.030405,-0.174019 -0.039785,-0.351173 -0.046875,-0.527344 -0.00964,-0.213135 -0.00632,-0.427695 0.00586,-0.640625 0.00999,-0.215307 0.036878,-0.427598 0.068359,-0.640625 0.030084,-0.175783 0.05495,-0.351794 0.072266,-0.529297 0.01076,-0.151677 0.029988,-0.304009 0.046875,-0.455078 0.015904,-0.165088 0.028469,-0.329298 0.046875,-0.494141 0.021084,-0.179717 0.054651,-0.35738 0.087891,-0.535156 0.02897,-0.169264 0.069287,-0.336972 0.1230468,-0.5 0.0691,-0.189263 0.166755,-0.364236 0.265625,-0.539062 C 10.339551,11.247397 10.406761,11.123986 10.472656,11 H 6 V 6 h 12 v 1.65625 c 0.03899,-0.00175 0.078,-0.00343 0.117188,-0.00391 0.199905,-0.00245 0.400132,0.00804 0.599609,0.021484 0.264196,0.017603 0.526696,0.059206 0.787109,0.1054688 C 19.670319,7.8107784 19.8352,7.8466521 20,7.8847656 V 6 C 20,2.5 16.42,2 12,2 Z M 7.5,14 A 1.5,1.5 0 1 1 6,15.5 1.5,1.5 0 0 1 7.5,14 Z" /><path
     id="path1-6"
     style="fill:#000000;stroke:none;stroke-width:0.00111116"
     d="m 16.836273,7.7088572 c -0.01758,0 -0.126617,0.00609 -0.242036,0.010813 -1.592606,0.068519 -3.06382,0.6643119 -4.298119,1.7416019 -0.169265,0.1471593 -0.563503,0.5501919 -0.707488,0.7231849 -0.524273,0.626828 -0.912956,1.27805 -1.207516,2.020582 -0.02043,0.05164 -0.0393,0.104939 -0.05851,0.157096 -0.0046,0.029 -0.0079,0.05779 -0.01335,0.08667 -0.04322,0.227021 -0.100977,0.450645 -0.167563,0.671722 -0.04217,0.136596 -0.08738,0.27178 -0.135648,0.406282 -0.2078488,1.121762 -0.1555191,2.297962 0.164904,3.396528 0.520977,1.782751 1.703254,3.293106 3.298062,4.206385 1.495888,0.857113 3.256201,1.118662 4.944435,0.736725 1.678341,-0.37969 3.16945,-1.391896 4.178431,-2.833147 0.706729,-1.008767 1.142932,-2.189976 1.266031,-3.429029 0.108819,-1.084025 -0.0292,-2.197499 -0.396299,-3.209638 C 22.98679,11.089314 22.159442,9.9584778 21.06253,9.1227056 20.045856,8.3487216 18.853434,7.8781928 17.572967,7.7467594 17.422383,7.7310333 16.914258,7.7043516 16.836223,7.7088448 Z m 0.207459,1.7686852 c 0.109929,-0.00538 0.664548,0.00474 0.859092,0.016248 0.309949,0.01796 0.547345,0.044653 0.747384,0.083975 0.04835,0.010121 0.108174,0.024184 0.135647,0.029783 0.215425,0.042693 0.522942,0.1441789 0.853771,0.2789814 l 0.207459,0.08398 0.0027,0.7827742 0.0027,0.782771 -0.06649,-0.03791 c -0.03849,-0.02245 -0.09734,-0.05673 -0.130324,-0.07585 -0.03295,-0.0191 -0.107276,-0.0622 -0.162243,-0.0948 -0.20663,-0.122437 -0.484962,-0.257429 -0.67291,-0.330443 -0.378093,-0.147159 -0.693334,-0.215024 -1.151663,-0.246479 -0.850708,-0.05729 -1.61159,0.08532 -2.282044,0.427952 -0.412169,0.210066 -0.706466,0.43249 -1.037296,0.777356 -0.512186,0.533589 -0.877815,1.248976 -1.023994,2.00162 -0.03737,0.192093 -0.04642,0.2341 -0.05851,0.338571 -0.04947,0.441475 -0.0383,0.954174 0.02659,1.313647 0.05055,0.283082 0.141966,0.622996 0.210118,0.774646 0.0086,0.01796 0.03074,0.07312 0.05054,0.119182 0.07475,0.183105 0.228729,0.455911 0.361723,0.644634 0.348417,0.495396 0.819283,0.90234 1.36444,1.180929 0.340725,0.17412 0.635374,0.277573 1.026654,0.362948 0.225321,0.0483 0.218943,0.04644 0.508009,0.08125 0.141785,0.01682 0.899951,0.01796 1.06921,0 0.322041,-0.03257 0.33406,-0.03259 0.633015,-0.09209 0.353917,-0.06968 0.697273,-0.184667 1.016017,-0.338567 0.06264,-0.03034 0.114797,-0.05417 0.117031,-0.05417 10e-4,0 0.07073,-0.03998 0.154264,-0.08937 0.13628,-0.07861 0.281153,-0.17325 0.454815,-0.297943 0.03295,-0.02359 0.116922,-0.0833 0.186181,-0.132715 0.06925,-0.04942 0.177825,-0.127264 0.239375,-0.173348 0.06264,-0.04493 0.117944,-0.07923 0.122342,-0.07584 0.0054,0.0055 -0.03298,0.109095 -0.08246,0.22481 -0.0076,0.01796 -0.02918,0.07511 -0.04787,0.124588 -0.0187,0.04942 -0.04175,0.10439 -0.05054,0.124588 -0.0086,0.0191 -0.01597,0.03725 -0.01597,0.04065 0,0.0034 -0.01239,0.03512 -0.02659,0.06772 -0.01439,0.03259 -0.03936,0.09749 -0.05586,0.143554 -0.01647,0.04604 -0.03281,0.08806 -0.03723,0.0948 -0.0031,0.0054 -0.01561,0.03626 -0.02659,0.06772 -0.0097,0.03035 -0.02578,0.07023 -0.03457,0.08937 -0.0076,0.01796 -0.03995,0.09787 -0.07181,0.178764 -0.03078,0.07972 -0.06412,0.162376 -0.07181,0.181473 -0.02857,0.06289 -0.304417,0.763076 -0.316509,0.799024 -0.01211,0.04043 -0.01415,0.04256 -0.252673,0.124587 -0.272575,0.09326 -0.46997,0.145328 -0.694188,0.18689 -0.05386,0.01012 -0.121472,0.02418 -0.148945,0.02978 -0.219822,0.04604 -1.201932,0.101332 -1.758081,0.100223 -0.246202,-0.0011 -0.676942,-0.03589 -0.949523,-0.07855 -0.140675,-0.02135 -0.44927,-0.08618 -0.555883,-0.116456 -0.03298,-0.0092 -0.07235,-0.02099 -0.08776,-0.02437 -0.115425,-0.03034 -0.412252,-0.127071 -0.545245,-0.178765 -0.566042,-0.220175 -1.150587,-0.578279 -1.582538,-0.966951 -0.123077,-0.110102 -0.392737,-0.383935 -0.470771,-0.479417 -0.03628,-0.04382 -0.0788,-0.09152 -0.09309,-0.108354 -0.04617,-0.05279 -0.270631,-0.365827 -0.324489,-0.452326 -0.281371,-0.445967 -0.477009,-0.873225 -0.614395,-1.346152 -0.09451,-0.324649 -0.13984,-0.554288 -0.191502,-0.977789 -0.02747,-0.217933 -0.02747,-0.942192 0,-1.151136 0.04836,-0.379691 0.06091,-0.442007 0.135646,-0.747559 0.102223,-0.415635 0.308786,-0.944082 0.500029,-1.267603 0.0231,-0.03819 0.04256,-0.07249 0.04256,-0.07585 0,-0.0054 0.148879,-0.244559 0.167563,-0.268146 0.0044,-0.0068 0.03665,-0.05241 0.07182,-0.102915 0.460527,-0.661651 1.11828,-1.22925 1.877767,-1.622424 0.11537,-0.05953 0.228494,-0.117182 0.252674,-0.127307 0.02419,-0.01012 0.07276,-0.03028 0.109052,-0.04604 0.205535,-0.08989 0.578117,-0.2200442 0.747383,-0.2627316 0.0242,-0.00538 0.07073,-0.018035 0.103726,-0.02708 0.06376,-0.016829 0.240428,-0.056766 0.340445,-0.075846 0.03297,-0.00678 0.08422,-0.018746 0.111707,-0.024367 0.178055,-0.035963 0.555496,-0.074123 0.88303,-0.092094 z" /></svg>
