<svg width="1024" height="1024" viewBox="0 0 1024 1024" fill="none" xmlns="http://www.w3.org/2000/svg">
<rect width="1024" height="1024" fill="white"/>
<path d="M358.571 146.856L460.714 881.142H476.428L508.571 992.57H735V1001.14H781.428V1010.43H980.357V656.303H851.558V112.57H815V129.713H630.714V113.285H605.714V97.5703H397.143V146.856H358.571Z" fill="#E9D3D7" stroke="black" stroke-width="2"/>
<path d="M517.857 168.999V97.5703H605.715V113.285H619.286V207.57H547.143V168.999H537V155.998C533.667 156.499 526.9 159.8 526.5 168.999H517.857Z" fill="#912338" stroke="black" stroke-width="2"/>
<path d="M619.285 153.285H654.285L671.953 183.887V236.856H851.558V112.57H814.999V129.713H630.714V113.285H619.285V153.285Z" fill="#912338" stroke="black" stroke-width="2"/>
<path d="M811.471 294.555L612.142 241.145H589V232.5C585.333 232.596 578 234.46 578 241.145C577.6 234.86 570.5 232.763 567 232.5V241.145H549.285V521.73H562.5V534.5C566.667 534.154 575 531.115 575 521.73C575.667 525.987 579.9 534.5 587.5 534.5V521.73H633.345L811.471 474.002V294.555Z" fill="#912338" stroke="black" stroke-width="2"/>
<path d="M759.999 280.761V236.857H780.5V222.5C784.5 224 791.5 225 793 236.857H851.558V518.286H760.714V535H773C773.642 538.833 772.085 546.8 760.714 548V581.857H734.999V540.429H689.434V531.5C674.982 531.1 671.789 524.333 672 521H689.434V506.7L811.471 474V294.553L759.999 280.761Z" fill="#912338" stroke="black" stroke-width="2"/>
<path d="M615 540.428H689.435V530.963C676.183 531.335 672.623 524.808 672.5 521.498H689.435V506.699L633.346 521.728H615V540.428Z" fill="#912338" stroke="black" stroke-width="2"/>
<path d="M504 506.857V434Z" fill="#912338"/>
<path d="M504 506.857V434" stroke="black" stroke-width="2"/>
<path d="M504 443L549 443Z" fill="#912338"/>
<path d="M504 443L549 443" stroke="black" stroke-width="2"/>
<path d="M515.714 402.215V237.93Z" fill="#912338"/>
<path d="M515.714 402.215V237.93" stroke="black" stroke-width="2"/>
<path d="M980.357 656.305H851.559V832.572H861V816.5C865.167 817.381 873.5 821.829 873.5 832.572H980.357V656.305Z" fill="#912338" stroke="black" stroke-width="2"/>
<path d="M851.558 764.711V664.711H754V677.996C750.167 676.639 743.7 672.883 744.5 664.711H735V764.711H851.558Z" fill="#912338" stroke="black" stroke-width="2"/>
<path d="M800.714 566.141H760.714V590.496H771.5C771 594.996 769.5 600.496 760.714 600.996V624.355H800.714V566.141Z" fill="#912338" stroke="black" stroke-width="2"/>
<path d="M851.558 624.355H760.714V664.713H851.558V624.355Z" fill="#912338" stroke="black" stroke-width="2"/>
<path d="M851.558 624.359V518.287H831C831.4 508.917 823.5 506.191 819.5 506V518.287H800.714V624.359H851.558Z" fill="#912338" stroke="black" stroke-width="2"/>
<path d="M800.714 518.285H760.714V534.998H773.5C773.643 538.831 771.285 546.798 760.714 547.998V566.142H800.714V518.285Z" fill="#912338" stroke="black" stroke-width="2"/>
<path d="M734.999 540.43H694.984V581.858H734.999V540.43Z" fill="#912338" stroke="black" stroke-width="2"/>
<path d="M694.985 540.43H657.104V581.858H694.985V540.43Z" fill="#912338" stroke="black" stroke-width="2"/>
<path d="M657.104 540.43H615V581.858H657.104V540.43Z" fill="#912338" stroke="black" stroke-width="2"/>
<path d="M656.786 625.43H615V664.715H656.786V625.43Z" fill="#912338" stroke="black" stroke-width="2"/>
<path d="M695.714 625.43H656.785V664.715H695.714V625.43Z" fill="#912338" stroke="black" stroke-width="2"/>
<path d="M735 625.43H695.714V664.715H735V625.43Z" fill="#912338" stroke="black" stroke-width="2"/>
<path d="M735 664.711H615V724.991H697V737.996C701 736.993 708.8 732.988 708 724.991H735V664.711Z" fill="#912338" stroke="black" stroke-width="2"/>
<path d="M683.125 773.5V725H697V737.5C700.833 736.667 708.4 733 708 725H735V773.5V797.5V832.568H707.625V810.094H675.781V773.5H683.125Z" fill="#912338" stroke="black" stroke-width="2"/>
<path d="M743 765H735V799H743V765Z" fill="#912338" stroke="black" stroke-width="2"/>
<path d="M771 765H743V801H771V765Z" fill="#912338" stroke="black" stroke-width="2"/>
<path d="M764.5 765.5V810.094V832.568H795V810.094H851.562V764.719L764.5 765.5Z" fill="#912338" stroke="black" stroke-width="2"/>
<path d="M851.558 810.094H825.547V832.571H851.558V810.094Z" fill="#912338" stroke="black" stroke-width="2"/>
<path d="M825.547 810.094H795V832.571H825.547V810.094Z" fill="#912338" stroke="black" stroke-width="2"/>
<path d="M859.281 861.5H906.438V852.5C915.587 852.1 917.958 844.667 918 841H906.438V832.562H980.344V868.656V1010.44H929.656V907.219H859.281V927.938V947.219H833.219V927.938H763.562V861.5H766.5C766.1 871.9 775 877.167 779.5 878.5V861.5H859.281Z" fill="#912338" stroke="black" stroke-width="2"/>
<path d="M859.281 907.219V947.219H833.219V927.938H763.562V909H735V1001.16H763.562H781.438V1010.44H859.281H929.656V907.219H859.281Z" fill="#912338" stroke="black" stroke-width="2"/>
<path d="M763.562 874.711H735V908.997H763.562V874.711Z" fill="#912338" stroke="black" stroke-width="2"/>
<path d="M651.844 792.031V810.094V832.562H707.625V810.094H669.094V792.031H651.844Z" fill="#912338" stroke="black" stroke-width="2"/>
<path d="M598.25 774.75V849.219H651.844V792.031H669.094V774.75H651.844H598.25Z" fill="#912338" stroke="black" stroke-width="2"/>
<path d="M669.094 724.992H615V774.747H669.094V724.992Z" fill="#912338" stroke="black" stroke-width="2"/>
<path d="M637.659 754.793H615V774.749H637.659V754.793Z" fill="#912338" stroke="black" stroke-width="2"/>
<path d="M425 626H509V794" stroke="black" stroke-width="2"/>
<path d="M469.285 626.062V794.359Z" fill="#912338"/>
<path d="M469.285 626.062V794.359" stroke="black" stroke-width="2"/>
<path d="M441.473 742.82H469.285Z" fill="#912338"/>
<path d="M441.473 742.82H469.285" stroke="black" stroke-width="2"/>
<path d="M476.429 881.143H515.714L507.5 854H481.429" stroke="black" stroke-width="2"/>
<path d="M515.714 881.141L546.428 992.569Z" fill="#912338"/>
<path d="M515.714 881.141L546.428 992.569" stroke="black" stroke-width="2"/>
<path d="M408.397 505.043H449.286V327.211H417.143L431.786 425.068" stroke="black" stroke-width="2"/>
<path d="M429.857 327L412 197Z" fill="#912338"/>
<path d="M429.857 327L412 197" stroke="black" stroke-width="2"/>
<path d="M430.357 97.5703H397.143V146.142H430.357V97.5703Z" fill="#912338" stroke="black" stroke-width="2"/>
<path d="M851.558 161.5H723.571V214.5H741C740.714 219.167 736.828 228.6 723.571 229V236.857H780.5V222.5C785 223.405 792 228.5 793 236.857H851.558V161.5Z" fill="#912338" stroke="black" stroke-width="2"/>
<path d="M547.143 168.998V129.508Z" fill="#912338"/>
<path d="M547.143 168.998V129.508" stroke="black" stroke-width="2"/>
<path d="M784.08 711.727V719H782.763V713.009H782.72L781.019 714.096V712.888L782.826 711.727H784.08ZM786.332 719.078C786.117 719.078 785.932 719.002 785.778 718.851C785.624 718.699 785.549 718.515 785.551 718.297C785.549 718.084 785.624 717.902 785.778 717.75C785.932 717.598 786.117 717.523 786.332 717.523C786.541 717.523 786.722 717.598 786.876 717.75C787.032 717.902 787.111 718.084 787.114 718.297C787.111 718.441 787.073 718.573 787 718.691C786.929 718.809 786.834 718.904 786.716 718.975C786.6 719.044 786.472 719.078 786.332 719.078ZM790.793 719.099C790.281 719.099 789.827 719.012 789.429 718.837C789.034 718.661 788.721 718.418 788.491 718.105C788.262 717.793 788.14 717.432 788.126 717.022H789.461C789.473 717.219 789.538 717.39 789.656 717.537C789.775 717.681 789.932 717.794 790.128 717.874C790.325 717.955 790.545 717.995 790.789 717.995C791.049 717.995 791.28 717.95 791.481 717.86C791.683 717.768 791.84 717.64 791.954 717.477C792.067 717.313 792.123 717.125 792.121 716.912C792.123 716.692 792.066 716.498 791.95 716.33C791.834 716.161 791.666 716.03 791.446 715.935C791.228 715.841 790.965 715.793 790.658 715.793H790.015V714.778H790.658C790.911 714.778 791.132 714.734 791.322 714.646C791.513 714.559 791.664 714.436 791.773 714.277C791.882 714.116 791.935 713.93 791.932 713.719C791.935 713.513 791.889 713.335 791.794 713.183C791.702 713.029 791.57 712.91 791.4 712.825C791.232 712.739 791.034 712.697 790.807 712.697C790.584 712.697 790.378 712.737 790.189 712.817C789.999 712.898 789.847 713.013 789.731 713.162C789.615 713.309 789.553 713.484 789.546 713.688H788.278C788.288 713.28 788.405 712.923 788.63 712.615C788.857 712.305 789.16 712.063 789.539 711.891C789.918 711.715 790.343 711.628 790.814 711.628C791.299 711.628 791.721 711.719 792.078 711.901C792.438 712.081 792.716 712.324 792.913 712.629C793.109 712.935 793.207 713.272 793.207 713.641C793.21 714.051 793.089 714.394 792.845 714.671C792.604 714.948 792.286 715.129 791.893 715.214V715.271C792.405 715.342 792.797 715.532 793.069 715.839C793.343 716.145 793.48 716.525 793.477 716.979C793.477 717.387 793.361 717.751 793.129 718.073C792.9 718.393 792.582 718.644 792.177 718.826C791.775 719.008 791.313 719.099 790.793 719.099ZM797.384 719.138C796.8 719.138 796.298 718.991 795.879 718.695C795.462 718.396 795.141 717.967 794.916 717.406C794.694 716.842 794.582 716.164 794.582 715.371C794.585 714.578 794.697 713.903 794.92 713.347C795.145 712.788 795.466 712.362 795.882 712.068C796.301 711.775 796.802 711.628 797.384 711.628C797.967 711.628 798.467 711.775 798.886 712.068C799.305 712.362 799.626 712.788 799.849 713.347C800.074 713.905 800.186 714.58 800.186 715.371C800.186 716.166 800.074 716.846 799.849 717.409C799.626 717.97 799.305 718.399 798.886 718.695C798.47 718.991 797.969 719.138 797.384 719.138ZM797.384 718.027C797.839 718.027 798.198 717.803 798.46 717.356C798.725 716.906 798.858 716.244 798.858 715.371C798.858 714.793 798.798 714.308 798.677 713.915C798.556 713.522 798.386 713.226 798.166 713.027C797.945 712.826 797.685 712.725 797.384 712.725C796.932 712.725 796.575 712.95 796.312 713.4C796.049 713.847 795.917 714.504 795.914 715.371C795.912 715.951 795.97 716.438 796.088 716.834C796.209 717.229 796.379 717.527 796.6 717.729C796.82 717.928 797.081 718.027 797.384 718.027ZM804.324 711.727V719H803.007V713.009H802.964L801.263 714.096V712.888L803.071 711.727H804.324Z" fill="white"/>
<path d="M907.431 745.727V753H906.113V747.009H906.07L904.369 748.096V746.888L906.177 745.727H907.431ZM909.683 753.078C909.467 753.078 909.283 753.002 909.129 752.851C908.975 752.699 908.899 752.515 908.902 752.297C908.899 752.084 908.975 751.902 909.129 751.75C909.283 751.598 909.467 751.523 909.683 751.523C909.891 751.523 910.072 751.598 910.226 751.75C910.382 751.902 910.462 752.084 910.464 752.297C910.462 752.441 910.424 752.573 910.35 752.691C910.279 752.809 910.185 752.904 910.066 752.975C909.95 753.044 909.823 753.078 909.683 753.078ZM911.646 751.651V750.603L914.732 745.727H915.605V747.219H915.073L912.995 750.511V750.567H917.303V751.651H911.646ZM915.115 753V751.331L915.129 750.862V745.727H916.372V753H915.115ZM921.047 753.099C920.536 753.099 920.081 753.012 919.684 752.837C919.288 752.661 918.976 752.418 918.746 752.105C918.517 751.793 918.395 751.432 918.381 751.022H919.716C919.728 751.219 919.793 751.39 919.911 751.537C920.029 751.681 920.187 751.794 920.383 751.874C920.58 751.955 920.8 751.995 921.044 751.995C921.304 751.995 921.535 751.95 921.736 751.86C921.938 751.768 922.095 751.64 922.209 751.477C922.322 751.313 922.378 751.125 922.376 750.912C922.378 750.692 922.321 750.498 922.205 750.33C922.089 750.161 921.921 750.03 921.701 749.935C921.483 749.841 921.22 749.793 920.912 749.793H920.27V748.778H920.912C921.166 748.778 921.387 748.734 921.577 748.646C921.768 748.559 921.919 748.436 922.028 748.277C922.136 748.116 922.19 747.93 922.187 747.719C922.19 747.513 922.144 747.335 922.049 747.183C921.956 747.029 921.825 746.91 921.655 746.825C921.487 746.739 921.289 746.697 921.062 746.697C920.839 746.697 920.633 746.737 920.444 746.817C920.254 746.898 920.102 747.013 919.986 747.162C919.87 747.309 919.808 747.484 919.801 747.688H918.533C918.543 747.28 918.66 746.923 918.885 746.615C919.112 746.305 919.415 746.063 919.794 745.891C920.173 745.715 920.598 745.628 921.069 745.628C921.554 745.628 921.975 745.719 922.333 745.901C922.693 746.081 922.971 746.324 923.167 746.629C923.364 746.935 923.462 747.272 923.462 747.641C923.465 748.051 923.344 748.394 923.1 748.671C922.858 748.948 922.541 749.129 922.148 749.214V749.271C922.66 749.342 923.051 749.532 923.324 749.839C923.598 750.145 923.734 750.525 923.732 750.979C923.732 751.387 923.616 751.751 923.384 752.073C923.154 752.393 922.837 752.644 922.432 752.826C922.03 753.008 921.568 753.099 921.047 753.099ZM925.217 753L928.31 746.878V746.828H924.72V745.727H929.674V746.853L926.585 753H925.217Z" fill="white"/>
<path d="M671.109 385.727V393H669.792V387.009H669.749L668.048 388.096V386.888L669.856 385.727H671.109ZM673.362 393.078C673.146 393.078 672.961 393.002 672.808 392.851C672.654 392.699 672.578 392.515 672.58 392.297C672.578 392.084 672.654 391.902 672.808 391.75C672.961 391.598 673.146 391.523 673.362 391.523C673.57 391.523 673.751 391.598 673.905 391.75C674.061 391.902 674.14 392.084 674.143 392.297C674.14 392.441 674.103 392.573 674.029 392.691C673.958 392.809 673.863 392.904 673.745 392.975C673.629 393.044 673.501 393.078 673.362 393.078ZM675.456 393V392.048L677.981 389.573C678.222 389.329 678.423 389.113 678.584 388.923C678.745 388.734 678.866 388.55 678.947 388.373C679.027 388.195 679.067 388.006 679.067 387.805C679.067 387.575 679.015 387.379 678.911 387.215C678.807 387.049 678.664 386.922 678.481 386.832C678.299 386.742 678.092 386.697 677.86 386.697C677.621 386.697 677.411 386.746 677.231 386.846C677.052 386.943 676.912 387.081 676.812 387.261C676.715 387.441 676.667 387.656 676.667 387.904H675.413C675.413 387.442 675.519 387.041 675.729 386.7C675.94 386.359 676.23 386.095 676.599 385.908C676.971 385.721 677.397 385.628 677.878 385.628C678.365 385.628 678.794 385.719 679.163 385.901C679.533 386.084 679.819 386.333 680.023 386.651C680.229 386.968 680.332 387.33 680.332 387.737C680.332 388.009 680.28 388.277 680.175 388.54C680.071 388.803 679.888 389.094 679.625 389.413C679.364 389.733 678.999 390.12 678.528 390.575L677.274 391.849V391.899H680.442V393H675.456ZM684.625 385.727V393H683.307V387.009H683.265L681.564 388.096V386.888L683.371 385.727H684.625ZM689.16 393.138C688.575 393.138 688.073 392.991 687.654 392.695C687.237 392.396 686.917 391.967 686.692 391.406C686.469 390.842 686.358 390.164 686.358 389.371C686.36 388.578 686.473 387.903 686.695 387.347C686.92 386.788 687.241 386.362 687.658 386.068C688.077 385.775 688.577 385.628 689.16 385.628C689.742 385.628 690.243 385.775 690.662 386.068C691.081 386.362 691.402 386.788 691.624 387.347C691.849 387.905 691.962 388.58 691.962 389.371C691.962 390.166 691.849 390.846 691.624 391.409C691.402 391.97 691.081 392.399 690.662 392.695C690.245 392.991 689.744 393.138 689.16 393.138ZM689.16 392.027C689.614 392.027 689.973 391.803 690.236 391.356C690.501 390.906 690.633 390.244 690.633 389.371C690.633 388.793 690.573 388.308 690.452 387.915C690.332 387.522 690.161 387.226 689.941 387.027C689.721 386.826 689.46 386.725 689.16 386.725C688.708 386.725 688.35 386.95 688.087 387.4C687.824 387.847 687.692 388.504 687.69 389.371C687.687 389.951 687.745 390.438 687.864 390.834C687.984 391.229 688.155 391.527 688.375 391.729C688.595 391.928 688.857 392.027 689.16 392.027Z" fill="white"/>
</svg>
