<svg width="1024" height="1024" viewBox="0 0 1024 1024" fill="none" xmlns="http://www.w3.org/2000/svg">
<rect width="1024" height="1024" transform="matrix(0 1 -1 0 1024 0)" fill="white"/>
<path d="M883.713 251.092H985.539V398.715L985.539 873.346H880.855V890.143H911.57V906.572H658H530.5L530.5 883C522.667 884.715 507 891.83 507 906.572L437.428 906.572V894.785H177.418V873.346L177.418 435.949H197.621V398.715L146.57 398.715H79.4277H38V73H79.4277V103L146.57 103V74.4277L373.713 74.4277V97.2852H435.143V145.857H490.855V197.285H546.57V243L622.285 243V230.143H670.855V248.715H832.285V231.572L883.713 231.572V251.092Z" fill="#E9D3D7" stroke="black" stroke-width="2"/>
<path d="M79.4277 141.571L79.4277 73H38L38 141.571H79.4277Z" fill="#912338" stroke="black" stroke-width="2"/>
<path d="M100.855 398.714V341.57H37.9991L37.9991 398.714H100.855Z" fill="#912338" stroke="black" stroke-width="2"/>
<path d="M159.428 398.714V341.57H100.856V398.714H159.428Z" fill="#912338" stroke="black" stroke-width="2"/>
<path d="M270.143 687.286V638.715H177.419V687.286H270.143Z" fill="#912338" stroke="black" stroke-width="2"/>
<path d="M339.428 687.286V638.715H270.142V687.286H339.428Z" fill="#912338" stroke="black" stroke-width="2"/>
<path d="M228 739.428V687.285H177.419V739.428H228Z" fill="#912338" stroke="black" stroke-width="2"/>
<path d="M339.428 687.285H228V739.428H177.418L177.418 836.5H269.428V770.857H339.428V687.285Z" fill="#912338" stroke="black" stroke-width="2"/>
<path d="M270.352 894.784V835.969H177.418V894.784H270.352Z" fill="#912338" stroke="black" stroke-width="2"/>
<path d="M437.285 894.784V835.855H380.142V894.784H437.285Z" fill="#912338" stroke="black" stroke-width="2"/>
<path d="M380.143 835.859H270.352V869.307V894.787H325.91H380.143V835.859Z" fill="#912338" stroke="black" stroke-width="2"/>
<path d="M590.064 835.859V785.969H539.557V835.859H590.064Z" fill="#912338" stroke="black" stroke-width="2"/>
<path d="M637.037 835.859V785.969H590.065V835.859H637.037Z" fill="#912338" stroke="black" stroke-width="2"/>
<path d="M668.604 835.856V801.371H637.036V835.856H668.604Z" fill="#912338" stroke="black" stroke-width="2"/>
<path d="M737.043 835.859V750.613H668.605V835.859H737.043Z" fill="#912338" stroke="black" stroke-width="2"/>
<path d="M802.701 835.859V750.613H737.041V835.859H802.701Z" fill="#912338" stroke="black" stroke-width="2"/>
<path d="M668.857 890.144V866.781H622.39V890.144H668.857Z" fill="#912338" stroke="black" stroke-width="2"/>
<path d="M819.875 890.144V866.781H686.03V890.144H819.875Z" fill="#912338" stroke="black" stroke-width="2"/>
<path d="M833.512 890.144V866.781H819.875V890.144H833.512Z" fill="#912338" stroke="black" stroke-width="2"/>
<path d="M880.855 890.144V866.781H833.512V890.144H880.855Z" fill="#912338" stroke="black" stroke-width="2"/>
<path d="M686.029 890.144V866.781H668.857V890.144H686.029Z" fill="#912338" stroke="black" stroke-width="2"/>
<path d="M961.213 833.177V768.289H866.342V833.177H961.213Z" fill="#912338" stroke="black" stroke-width="2"/>
<path d="M961.213 768.29V293.5H866.342V424V768.29H961.213Z" fill="#912338"/>
<path d="M866.342 424V768.29H961.213V293.5H866.342V424ZM866.342 424H838" stroke="black" stroke-width="2"/>
<path d="M738.557 704.145H721.385V685.457H668.604V750.611H738.557V704.145Z" fill="#912338" stroke="black" stroke-width="2"/>
<path d="M809.268 685.457H759.266V704.145H738.557V750.611H809.268V685.457Z" fill="#912338" stroke="black" stroke-width="2"/>
<path d="M759.266 704.145V685.457H721.385V704.145H759.266Z" fill="#912338" stroke="black" stroke-width="2"/>
<path d="M836.037 733.944V685.457H809.268V733.944H836.037Z" fill="#912338" stroke="black" stroke-width="2"/>
<path d="M838.057 586.461V437.969H666.836V586.461H838.057Z" fill="#912338" stroke="black" stroke-width="2"/>
<path d="M878 552V425H790V552H878Z" fill="#912338"/>
<path d="M838.057 363.219V285.941H788.561H666.836V437.969H838.057V363.219Z" fill="#912338" stroke="black" stroke-width="2"/>
<path d="M883.428 251V232H832.428V251H883.428Z" fill="#912338" stroke="black" stroke-width="2"/>
<path d="M826.928 633.713V586.461H675.499V633.713H826.928Z" fill="#912338" stroke="black" stroke-width="2"/>
<path d="M638.713 338.714V285.941H590.141V338.714H638.713Z" fill="#912338" stroke="black" stroke-width="2"/>
<path d="M590.143 338.714V285.941H542.285V338.714H590.143Z" fill="#912338" stroke="black" stroke-width="2"/>
<path d="M638.713 538.001V338.715H542.284V538.001H604.5C604.5 520.401 615.833 515.667 621.5 515.5V538.001H638.713Z" fill="#912338" stroke="black" stroke-width="2"/>
<path d="M616.57 243H546.57V197.285H490.855V243V285.941H616.57V243Z" fill="#912338" stroke="black" stroke-width="2"/>
<path d="M490.855 285.94V258.355H458.713V285.94H490.855Z" fill="#912338" stroke="black" stroke-width="2"/>
<path d="M490.428 286V243H435.428V286H490.428Z" fill="#912338" stroke="black" stroke-width="2"/>
<path d="M490.855 197.287V145.859H435.143V197.287H490.855Z" fill="#912338" stroke="black" stroke-width="2"/>
<path d="M490.855 197.285H435.143V226.5H373.713V285.941H435.143V243H490.855V197.285Z" fill="#912338" stroke="black" stroke-width="2"/>
<path d="M435 167.747H395.5V146H373V227H435V167.747Z" fill="#912338" stroke="black" stroke-width="2"/>
<path d="M435.143 170.502V145.859H395.143V170.502H435.143Z" fill="#912338" stroke="black" stroke-width="2"/>
<path d="M435.143 97.2871H373.713V74.4297L307.285 74.4297V134.43H373.713V145.859H435.143V97.2871Z" fill="#912338" stroke="black" stroke-width="2"/>
<path d="M307.285 134.43V74.4297H272.642V134.43H307.285Z" fill="#912338" stroke="black" stroke-width="2"/>
<path d="M272.643 134.43V74.4297H223.357V134.43H272.643Z" fill="#912338" stroke="black" stroke-width="2"/>
<path d="M223.355 134.43V74.4297H174.427V134.43H223.355Z" fill="#912338" stroke="black" stroke-width="2"/>
<path d="M174.428 134.43V74.4297H146.57V134.43H174.428Z" fill="#912338" stroke="black" stroke-width="2"/>
<path d="M836.037 733.945H866.342Z" fill="#912338"/>
<path d="M836.037 733.945H866.342" stroke="black" stroke-width="2"/>
<path d="M838.058 551.93H866.342Z" fill="#912338"/>
<path d="M838.058 551.93H866.342" stroke="black" stroke-width="2"/>
<path d="M838 312H867.295Z" fill="#912338"/>
<path d="M838 312H867.295" stroke="black" stroke-width="2"/>
<path d="M815.855 285.941V248.715Z" fill="#912338"/>
<path d="M815.855 285.941V248.715" stroke="black" stroke-width="2"/>
<path d="M670.855 230.141H622.285V242.998H616.57V248.713H622.285H670.855V230.141Z" fill="#912338" stroke="black" stroke-width="2"/>
<path d="M638.713 285.941V248.715Z" fill="#912338"/>
<path d="M638.713 285.941V248.715" stroke="black" stroke-width="2"/>
<path d="M833.512 866.78V782.938H802.702" stroke="black" stroke-width="2"/>
<path d="M539.557 835.855H437.284Z" fill="#912338"/>
<path d="M539.557 835.855H437.284" stroke="black" stroke-width="2"/>
<path d="M539.557 805.145H437.284Z" fill="#912338"/>
<path d="M539.557 805.145H437.284" stroke="black" stroke-width="2"/>
<path d="M437.285 821.32V835.855Z" fill="#912338"/>
<path d="M437.285 821.32V835.855" stroke="black" stroke-width="2"/>
<path d="M573.979 433.727L575.872 439.452H575.947L577.836 433.727H579.285L576.721 441H575.094L572.534 433.727H573.979ZM580.243 441V433.727H581.56V439.896H584.763V441H580.243ZM588.648 436.835V437.893H585.374V436.835H588.648ZM592.944 433.727V441H591.627V435.009H591.584L589.883 436.096V434.888L591.691 433.727H592.944ZM594.791 441V440.048L597.316 437.573C597.557 437.329 597.758 437.113 597.919 436.923C598.08 436.734 598.201 436.55 598.282 436.373C598.362 436.195 598.402 436.006 598.402 435.805C598.402 435.575 598.35 435.379 598.246 435.215C598.142 435.049 597.999 434.922 597.816 434.832C597.634 434.742 597.427 434.697 597.195 434.697C596.956 434.697 596.746 434.746 596.566 434.846C596.386 434.943 596.247 435.081 596.147 435.261C596.05 435.441 596.002 435.656 596.002 435.904H594.748C594.748 435.442 594.854 435.041 595.064 434.7C595.275 434.359 595.565 434.095 595.934 433.908C596.306 433.721 596.732 433.628 597.213 433.628C597.7 433.628 598.129 433.719 598.498 433.901C598.868 434.084 599.154 434.333 599.358 434.651C599.564 434.968 599.667 435.33 599.667 435.737C599.667 436.009 599.614 436.277 599.51 436.54C599.406 436.803 599.223 437.094 598.96 437.413C598.699 437.733 598.334 438.12 597.863 438.575L596.609 439.849V439.899H599.777V441H594.791ZM601.002 441V440.048L603.527 437.573C603.768 437.329 603.969 437.113 604.13 436.923C604.291 436.734 604.412 436.55 604.493 436.373C604.573 436.195 604.613 436.006 604.613 435.805C604.613 435.575 604.561 435.379 604.457 435.215C604.353 435.049 604.21 434.922 604.027 434.832C603.845 434.742 603.638 434.697 603.406 434.697C603.167 434.697 602.957 434.746 602.777 434.846C602.597 434.943 602.458 435.081 602.358 435.261C602.261 435.441 602.213 435.656 602.213 435.904H600.959C600.959 435.442 601.065 435.041 601.275 434.7C601.486 434.359 601.776 434.095 602.145 433.908C602.517 433.721 602.943 433.628 603.424 433.628C603.911 433.628 604.34 433.719 604.709 433.901C605.078 434.084 605.365 434.333 605.569 434.651C605.775 434.968 605.877 435.33 605.877 435.737C605.877 436.009 605.825 436.277 605.721 436.54C605.617 436.803 605.434 437.094 605.171 437.413C604.91 437.733 604.545 438.12 604.074 438.575L602.82 439.849V439.899H605.988V441H601.002Z" fill="white"/>
<path d="M223.402 39.7266C223.369 39.4164 223.229 39.175 222.983 39.0021C222.739 38.8293 222.422 38.7429 222.031 38.7429C221.757 38.7429 221.521 38.7843 221.325 38.8672C221.128 38.95 220.978 39.0625 220.874 39.2045C220.77 39.3466 220.716 39.5088 220.714 39.6911C220.714 39.8426 220.748 39.974 220.817 40.0852C220.888 40.1965 220.984 40.2912 221.105 40.3693C221.225 40.4451 221.359 40.509 221.506 40.5611C221.653 40.6132 221.801 40.657 221.95 40.6925L222.632 40.8629C222.906 40.9268 223.17 41.0133 223.423 41.1222C223.679 41.2311 223.908 41.3684 224.109 41.5341C224.312 41.6998 224.473 41.8999 224.592 42.1342C224.71 42.3686 224.769 42.6432 224.769 42.9581C224.769 43.3842 224.66 43.7595 224.443 44.0838C224.225 44.4058 223.91 44.6579 223.498 44.8402C223.088 45.0201 222.593 45.1101 222.01 45.1101C221.444 45.1101 220.953 45.0225 220.536 44.8473C220.122 44.6721 219.798 44.4164 219.563 44.0803C219.331 43.7441 219.206 43.3345 219.187 42.8516H220.483C220.502 43.1049 220.58 43.3156 220.718 43.4837C220.855 43.6518 221.034 43.7772 221.254 43.8601C221.476 43.9429 221.725 43.9844 221.999 43.9844C222.286 43.9844 222.537 43.9418 222.752 43.8565C222.97 43.7689 223.141 43.6482 223.264 43.4943C223.387 43.3381 223.45 43.1558 223.452 42.9474C223.45 42.758 223.394 42.6018 223.285 42.4787C223.176 42.3532 223.023 42.2491 222.827 42.1662C222.633 42.081 222.405 42.0052 222.145 41.9389L221.318 41.7259C220.719 41.572 220.245 41.3388 219.897 41.0263C219.552 40.7114 219.379 40.2936 219.379 39.7727C219.379 39.3442 219.495 38.969 219.727 38.647C219.961 38.325 220.28 38.0753 220.682 37.8977C221.084 37.7178 221.54 37.6278 222.049 37.6278C222.565 37.6278 223.017 37.7178 223.406 37.8977C223.796 38.0753 224.103 38.3227 224.325 38.6399C224.548 38.9548 224.663 39.317 224.67 39.7266H223.402ZM227.173 41.804V45H225.887V37.7273H227.144V40.4723H227.208C227.336 40.1645 227.534 39.9219 227.801 39.7443C228.071 39.5644 228.414 39.4744 228.831 39.4744C229.21 39.4744 229.54 39.5537 229.822 39.7124C230.103 39.871 230.321 40.103 230.475 40.4084C230.631 40.7138 230.71 41.0866 230.71 41.527V45H229.424V41.7259C229.424 41.3589 229.329 41.0736 229.14 40.87C228.953 40.6641 228.69 40.5611 228.352 40.5611C228.124 40.5611 227.921 40.6108 227.741 40.7102C227.563 40.8073 227.424 40.9482 227.322 41.1328C227.222 41.3175 227.173 41.5412 227.173 41.804ZM234.435 45.1065C233.888 45.1065 233.415 44.9929 233.018 44.7656C232.622 44.536 232.318 44.2116 232.105 43.7926C231.892 43.3712 231.786 42.8752 231.786 42.3047C231.786 41.7436 231.892 41.2512 232.105 40.8274C232.321 40.4013 232.621 40.0698 233.007 39.8331C233.393 39.594 233.846 39.4744 234.367 39.4744C234.703 39.4744 235.021 39.5289 235.319 39.6378C235.62 39.7443 235.885 39.91 236.114 40.1349C236.346 40.3598 236.529 40.6463 236.661 40.9943C236.794 41.34 236.86 41.7519 236.86 42.2301V42.6243H232.389V41.7578H235.628C235.625 41.5116 235.572 41.2926 235.468 41.1009C235.364 40.9067 235.218 40.754 235.031 40.6428C234.847 40.5315 234.631 40.4759 234.385 40.4759C234.122 40.4759 233.891 40.5398 233.692 40.6676C233.494 40.7931 233.339 40.9588 233.227 41.1648C233.118 41.3684 233.063 41.5921 233.06 41.8359V42.5923C233.06 42.9096 233.118 43.1818 233.234 43.4091C233.35 43.634 233.513 43.8068 233.721 43.9276C233.929 44.0459 234.173 44.1051 234.452 44.1051C234.639 44.1051 234.809 44.0791 234.96 44.027C235.112 43.9725 235.243 43.8932 235.354 43.7891C235.466 43.6849 235.55 43.5559 235.607 43.402L236.807 43.5369C236.731 43.8542 236.587 44.1312 236.374 44.3679C236.163 44.6023 235.893 44.7846 235.564 44.9148C235.235 45.0426 234.858 45.1065 234.435 45.1065ZM237.948 45V39.5455H239.194V40.4545H239.251C239.35 40.1397 239.521 39.897 239.762 39.7266C240.006 39.5537 240.284 39.4673 240.597 39.4673C240.668 39.4673 240.747 39.4709 240.835 39.478C240.925 39.4827 240.999 39.491 241.058 39.5028V40.6854C241.004 40.6664 240.918 40.6499 240.799 40.6357C240.683 40.6191 240.571 40.6108 240.462 40.6108C240.227 40.6108 240.017 40.6617 239.83 40.7635C239.645 40.8629 239.499 41.0014 239.393 41.179C239.286 41.3565 239.233 41.5613 239.233 41.7933V45H237.948ZM241.969 45V37.7273H243.255V40.4474H243.308C243.374 40.3149 243.468 40.174 243.589 40.0249C243.709 39.8733 243.873 39.7443 244.079 39.6378C244.285 39.5289 244.547 39.4744 244.867 39.4744C245.288 39.4744 245.668 39.5821 246.007 39.7976C246.348 40.0107 246.618 40.3267 246.817 40.7457C247.018 41.1624 247.118 41.6738 247.118 42.2798C247.118 42.8788 247.02 43.3878 246.824 43.8068C246.627 44.2259 246.36 44.5455 246.021 44.7656C245.683 44.9858 245.299 45.0959 244.871 45.0959C244.558 45.0959 244.299 45.0438 244.093 44.9396C243.887 44.8355 243.721 44.71 243.596 44.5632C243.473 44.4141 243.377 44.2732 243.308 44.1406H243.233V45H241.969ZM243.23 42.2727C243.23 42.6255 243.28 42.9344 243.379 43.1996C243.481 43.4647 243.626 43.6719 243.816 43.821C244.008 43.9678 244.24 44.0412 244.512 44.0412C244.796 44.0412 245.034 43.9654 245.226 43.8139C245.417 43.66 245.562 43.4505 245.659 43.1854C245.758 42.9179 245.808 42.6136 245.808 42.2727C245.808 41.9342 245.76 41.6335 245.662 41.3707C245.565 41.108 245.421 40.902 245.229 40.7528C245.037 40.6037 244.798 40.5291 244.512 40.5291C244.237 40.5291 244.004 40.6013 243.812 40.7457C243.621 40.8902 243.475 41.0926 243.376 41.353C243.278 41.6134 243.23 41.92 243.23 42.2727ZM248.211 45V39.5455H249.458V40.4545H249.515C249.614 40.1397 249.784 39.897 250.026 39.7266C250.27 39.5537 250.548 39.4673 250.86 39.4673C250.931 39.4673 251.011 39.4709 251.098 39.478C251.188 39.4827 251.263 39.491 251.322 39.5028V40.6854C251.268 40.6664 251.181 40.6499 251.063 40.6357C250.947 40.6191 250.834 40.6108 250.725 40.6108C250.491 40.6108 250.28 40.6617 250.093 40.7635C249.909 40.8629 249.763 41.0014 249.657 41.179C249.55 41.3565 249.497 41.5613 249.497 41.7933V45H248.211ZM254.331 45.1065C253.798 45.1065 253.336 44.9893 252.946 44.755C252.555 44.5206 252.252 44.1927 252.037 43.7713C251.824 43.3499 251.717 42.8575 251.717 42.294C251.717 41.7306 251.824 41.237 252.037 40.8132C252.252 40.3894 252.555 40.0604 252.946 39.826C253.336 39.5916 253.798 39.4744 254.331 39.4744C254.863 39.4744 255.325 39.5916 255.716 39.826C256.106 40.0604 256.408 40.3894 256.621 40.8132C256.837 41.237 256.944 41.7306 256.944 42.294C256.944 42.8575 256.837 43.3499 256.621 43.7713C256.408 44.1927 256.106 44.5206 255.716 44.755C255.325 44.9893 254.863 45.1065 254.331 45.1065ZM254.338 44.0767C254.627 44.0767 254.868 43.9974 255.062 43.8388C255.256 43.6778 255.401 43.4624 255.496 43.1925C255.593 42.9226 255.641 42.6219 255.641 42.2905C255.641 41.9567 255.593 41.6548 255.496 41.3849C255.401 41.1127 255.256 40.8961 255.062 40.7351C254.868 40.5741 254.627 40.4936 254.338 40.4936C254.042 40.4936 253.796 40.5741 253.599 40.7351C253.405 40.8961 253.26 41.1127 253.162 41.3849C253.068 41.6548 253.02 41.9567 253.02 42.2905C253.02 42.6219 253.068 42.9226 253.162 43.1925C253.26 43.4624 253.405 43.6778 253.599 43.8388C253.796 43.9974 254.042 44.0767 254.338 44.0767ZM260.415 45.1065C259.882 45.1065 259.42 44.9893 259.03 44.755C258.639 44.5206 258.336 44.1927 258.121 43.7713C257.908 43.3499 257.801 42.8575 257.801 42.294C257.801 41.7306 257.908 41.237 258.121 40.8132C258.336 40.3894 258.639 40.0604 259.03 39.826C259.42 39.5916 259.882 39.4744 260.415 39.4744C260.947 39.4744 261.409 39.5916 261.8 39.826C262.19 40.0604 262.492 40.3894 262.705 40.8132C262.921 41.237 263.028 41.7306 263.028 42.294C263.028 42.8575 262.921 43.3499 262.705 43.7713C262.492 44.1927 262.19 44.5206 261.8 44.755C261.409 44.9893 260.947 45.1065 260.415 45.1065ZM260.422 44.0767C260.711 44.0767 260.952 43.9974 261.146 43.8388C261.34 43.6778 261.485 43.4624 261.58 43.1925C261.677 42.9226 261.725 42.6219 261.725 42.2905C261.725 41.9567 261.677 41.6548 261.58 41.3849C261.485 41.1127 261.34 40.8961 261.146 40.7351C260.952 40.5741 260.711 40.4936 260.422 40.4936C260.126 40.4936 259.88 40.5741 259.683 40.7351C259.489 40.8961 259.344 41.1127 259.246 41.3849C259.152 41.6548 259.104 41.9567 259.104 42.2905C259.104 42.6219 259.152 42.9226 259.246 43.1925C259.344 43.4624 259.489 43.6778 259.683 43.8388C259.88 43.9974 260.126 44.0767 260.422 44.0767ZM265.291 43.2884L265.288 41.7365H265.494L267.454 39.5455H268.956L266.545 42.2301H266.279L265.291 43.2884ZM264.119 45V37.7273H265.405V45H264.119ZM267.543 45L265.767 42.5178L266.634 41.6122L269.08 45H267.543ZM272.003 45.1065C271.456 45.1065 270.984 44.9929 270.586 44.7656C270.191 44.536 269.887 44.2116 269.673 43.7926C269.46 43.3712 269.354 42.8752 269.354 42.3047C269.354 41.7436 269.46 41.2512 269.673 40.8274C269.889 40.4013 270.19 40.0698 270.575 39.8331C270.961 39.594 271.415 39.4744 271.936 39.4744C272.272 39.4744 272.589 39.5289 272.887 39.6378C273.188 39.7443 273.453 39.91 273.683 40.1349C273.915 40.3598 274.097 40.6463 274.23 40.9943C274.362 41.34 274.428 41.7519 274.428 42.2301V42.6243H269.958V41.7578H273.196C273.194 41.5116 273.141 41.2926 273.036 41.1009C272.932 40.9067 272.787 40.754 272.6 40.6428C272.415 40.5315 272.2 40.4759 271.953 40.4759C271.691 40.4759 271.46 40.5398 271.261 40.6676C271.062 40.7931 270.907 40.9588 270.796 41.1648C270.687 41.3684 270.631 41.5921 270.629 41.8359V42.5923C270.629 42.9096 270.687 43.1818 270.803 43.4091C270.919 43.634 271.081 43.8068 271.289 43.9276C271.498 44.0459 271.741 44.1051 272.021 44.1051C272.208 44.1051 272.377 44.0791 272.529 44.027C272.68 43.9725 272.811 43.8932 272.923 43.7891C273.034 43.6849 273.118 43.5559 273.175 43.402L274.375 43.5369C274.299 43.8542 274.155 44.1312 273.942 44.3679C273.731 44.6023 273.461 44.7846 273.132 44.9148C272.803 45.0426 272.427 45.1065 272.003 45.1065ZM284.486 39.7266C284.453 39.4164 284.313 39.175 284.067 39.0021C283.823 38.8293 283.506 38.7429 283.115 38.7429C282.841 38.7429 282.605 38.7843 282.409 38.8672C282.212 38.95 282.062 39.0625 281.958 39.2045C281.854 39.3466 281.8 39.5088 281.798 39.6911C281.798 39.8426 281.832 39.974 281.901 40.0852C281.972 40.1965 282.068 40.2912 282.189 40.3693C282.309 40.4451 282.443 40.509 282.59 40.5611C282.737 40.6132 282.885 40.657 283.034 40.6925L283.716 40.8629C283.99 40.9268 284.254 41.0133 284.507 41.1222C284.763 41.2311 284.992 41.3684 285.193 41.5341C285.396 41.6998 285.557 41.8999 285.676 42.1342C285.794 42.3686 285.853 42.6432 285.853 42.9581C285.853 43.3842 285.744 43.7595 285.527 44.0838C285.309 44.4058 284.994 44.6579 284.582 44.8402C284.172 45.0201 283.676 45.1101 283.094 45.1101C282.528 45.1101 282.037 45.0225 281.62 44.8473C281.206 44.6721 280.882 44.4164 280.647 44.0803C280.415 43.7441 280.29 43.3345 280.271 42.8516H281.567C281.586 43.1049 281.664 43.3156 281.801 43.4837C281.939 43.6518 282.118 43.7772 282.338 43.8601C282.56 43.9429 282.809 43.9844 283.083 43.9844C283.37 43.9844 283.621 43.9418 283.836 43.8565C284.054 43.7689 284.225 43.6482 284.348 43.4943C284.471 43.3381 284.533 43.1558 284.536 42.9474C284.533 42.758 284.478 42.6018 284.369 42.4787C284.26 42.3532 284.107 42.2491 283.911 42.1662C283.717 42.081 283.489 42.0052 283.229 41.9389L282.402 41.7259C281.803 41.572 281.329 41.3388 280.981 41.0263C280.636 40.7114 280.463 40.2936 280.463 39.7727C280.463 39.3442 280.579 38.969 280.811 38.647C281.045 38.325 281.364 38.0753 281.766 37.8977C282.168 37.7178 282.624 37.6278 283.133 37.6278C283.649 37.6278 284.101 37.7178 284.49 37.8977C284.88 38.0753 285.187 38.3227 285.409 38.6399C285.632 38.9548 285.747 39.317 285.754 39.7266H284.486ZM289.695 39.5455V40.5398H286.559V39.5455H289.695ZM287.333 38.2386H288.619V43.3594C288.619 43.5322 288.645 43.6648 288.697 43.7571C288.751 43.8471 288.822 43.9086 288.91 43.9418C288.998 43.9749 289.095 43.9915 289.201 43.9915C289.282 43.9915 289.355 43.9856 289.421 43.9737C289.49 43.9619 289.542 43.9512 289.578 43.9418L289.794 44.9467C289.726 44.9704 289.627 44.9964 289.499 45.0249C289.374 45.0533 289.22 45.0698 289.038 45.0746C288.716 45.084 288.426 45.0355 288.168 44.929C287.91 44.8201 287.705 44.652 287.553 44.4247C287.404 44.1974 287.331 43.9134 287.333 43.5724V38.2386ZM291.562 45.0781C291.346 45.0781 291.162 45.0024 291.008 44.8509C290.854 44.6993 290.778 44.5147 290.781 44.2969C290.778 44.0838 290.854 43.9015 291.008 43.75C291.162 43.5985 291.346 43.5227 291.562 43.5227C291.77 43.5227 291.951 43.5985 292.105 43.75C292.261 43.9015 292.341 44.0838 292.343 44.2969C292.341 44.4413 292.303 44.5727 292.229 44.6911C292.158 44.8094 292.064 44.9041 291.945 44.9751C291.829 45.0438 291.701 45.0781 291.562 45.0781ZM297.513 45L295.461 37.7273H296.878L298.188 43.0717H298.256L299.655 37.7273H300.944L302.347 43.0753H302.411L303.721 37.7273H305.138L303.085 45H301.786L300.33 39.897H300.273L298.813 45H297.513ZM305.82 45.0781C305.604 45.0781 305.42 45.0024 305.266 44.8509C305.112 44.6993 305.036 44.5147 305.038 44.2969C305.036 44.0838 305.112 43.9015 305.266 43.75C305.42 43.5985 305.604 43.5227 305.82 43.5227C306.028 43.5227 306.209 43.5985 306.363 43.75C306.519 43.9015 306.598 44.0838 306.601 44.2969C306.598 44.4413 306.561 44.5727 306.487 44.6911C306.416 44.8094 306.321 44.9041 306.203 44.9751C306.087 45.0438 305.959 45.0781 305.82 45.0781Z" fill="black"/>
<path d="M205.888 237.727C205.854 237.416 205.715 237.175 205.468 237.002C205.225 236.829 204.907 236.743 204.517 236.743C204.242 236.743 204.007 236.784 203.81 236.867C203.614 236.95 203.463 237.062 203.359 237.205C203.255 237.347 203.202 237.509 203.199 237.691C203.199 237.843 203.234 237.974 203.302 238.085C203.373 238.196 203.469 238.291 203.59 238.369C203.711 238.445 203.844 238.509 203.991 238.561C204.138 238.613 204.286 238.657 204.435 238.692L205.117 238.863C205.392 238.927 205.656 239.013 205.909 239.122C206.165 239.231 206.393 239.368 206.594 239.534C206.798 239.7 206.959 239.9 207.077 240.134C207.196 240.369 207.255 240.643 207.255 240.958C207.255 241.384 207.146 241.759 206.928 242.084C206.71 242.406 206.395 242.658 205.983 242.84C205.574 243.02 205.078 243.11 204.495 243.11C203.93 243.11 203.438 243.022 203.022 242.847C202.607 242.672 202.283 242.416 202.049 242.08C201.817 241.744 201.691 241.335 201.672 240.852H202.968C202.987 241.105 203.066 241.316 203.203 241.484C203.34 241.652 203.519 241.777 203.739 241.86C203.962 241.943 204.21 241.984 204.485 241.984C204.771 241.984 205.022 241.942 205.238 241.857C205.455 241.769 205.626 241.648 205.749 241.494C205.872 241.338 205.935 241.156 205.937 240.947C205.935 240.758 205.879 240.602 205.77 240.479C205.661 240.353 205.509 240.249 205.312 240.166C205.118 240.081 204.891 240.005 204.63 239.939L203.803 239.726C203.204 239.572 202.731 239.339 202.383 239.026C202.037 238.711 201.864 238.294 201.864 237.773C201.864 237.344 201.98 236.969 202.212 236.647C202.446 236.325 202.765 236.075 203.167 235.898C203.57 235.718 204.026 235.628 204.535 235.628C205.051 235.628 205.503 235.718 205.891 235.898C206.282 236.075 206.588 236.323 206.811 236.64C207.033 236.955 207.148 237.317 207.155 237.727H205.888ZM211.096 237.545V238.54H207.96V237.545H211.096ZM208.735 236.239H210.02V241.359C210.02 241.532 210.046 241.665 210.098 241.757C210.153 241.847 210.224 241.909 210.311 241.942C210.399 241.975 210.496 241.991 210.603 241.991C210.683 241.991 210.756 241.986 210.823 241.974C210.891 241.962 210.943 241.951 210.979 241.942L211.196 242.947C211.127 242.97 211.029 242.996 210.901 243.025C210.775 243.053 210.621 243.07 210.439 243.075C210.117 243.084 209.827 243.036 209.569 242.929C209.311 242.82 209.106 242.652 208.955 242.425C208.806 242.197 208.732 241.913 208.735 241.572V236.239ZM215.648 240.706V237.545H216.933V243H215.687V242.031H215.63C215.507 242.336 215.305 242.586 215.023 242.78C214.743 242.974 214.399 243.071 213.989 243.071C213.632 243.071 213.316 242.992 213.041 242.833C212.769 242.672 212.556 242.439 212.402 242.134C212.248 241.826 212.171 241.454 212.171 241.018V237.545H213.457V240.82C213.457 241.165 213.551 241.44 213.741 241.643C213.93 241.847 214.179 241.949 214.487 241.949C214.676 241.949 214.859 241.903 215.037 241.81C215.215 241.718 215.36 241.581 215.474 241.398C215.59 241.214 215.648 240.983 215.648 240.706ZM220.279 243.096C219.851 243.096 219.467 242.986 219.129 242.766C218.79 242.545 218.523 242.226 218.326 241.807C218.13 241.388 218.032 240.879 218.032 240.28C218.032 239.674 218.131 239.162 218.33 238.746C218.531 238.327 218.802 238.011 219.143 237.798C219.484 237.582 219.864 237.474 220.283 237.474C220.603 237.474 220.865 237.529 221.071 237.638C221.277 237.744 221.441 237.873 221.561 238.025C221.682 238.174 221.776 238.315 221.842 238.447H221.895V235.727H223.184V243H221.92V242.141H221.842C221.776 242.273 221.68 242.414 221.554 242.563C221.429 242.71 221.263 242.835 221.057 242.94C220.851 243.044 220.592 243.096 220.279 243.096ZM220.638 242.041C220.91 242.041 221.142 241.968 221.334 241.821C221.526 241.672 221.671 241.465 221.771 241.2C221.87 240.934 221.92 240.625 221.92 240.273C221.92 239.92 221.87 239.613 221.771 239.353C221.674 239.093 221.529 238.89 221.338 238.746C221.148 238.601 220.915 238.529 220.638 238.529C220.352 238.529 220.112 238.604 219.921 238.753C219.729 238.902 219.585 239.108 219.487 239.371C219.39 239.634 219.342 239.934 219.342 240.273C219.342 240.614 219.39 240.918 219.487 241.185C219.587 241.451 219.733 241.66 219.924 241.814C220.118 241.965 220.356 242.041 220.638 242.041ZM225.353 245.045C225.178 245.045 225.016 245.031 224.867 245.003C224.72 244.977 224.603 244.946 224.515 244.911L224.813 243.909C225 243.964 225.167 243.99 225.314 243.987C225.461 243.985 225.59 243.939 225.701 243.849C225.815 243.761 225.911 243.614 225.989 243.408L226.099 243.114L224.121 237.545H225.484L226.742 241.665H226.798L228.059 237.545H229.426L227.242 243.661C227.14 243.949 227.006 244.197 226.837 244.403C226.669 244.611 226.463 244.77 226.22 244.879C225.978 244.99 225.689 245.045 225.353 245.045ZM233.787 243H232.381L234.941 235.727H236.568L239.131 243H237.725L235.783 237.219H235.726L233.787 243ZM233.833 240.148H237.668V241.207H233.833V240.148ZM240.033 243V237.545H241.279V238.455H241.336C241.435 238.14 241.606 237.897 241.847 237.727C242.091 237.554 242.369 237.467 242.682 237.467C242.753 237.467 242.832 237.471 242.92 237.478C243.01 237.483 243.084 237.491 243.143 237.503V238.685C243.089 238.666 243.003 238.65 242.884 238.636C242.768 238.619 242.656 238.611 242.547 238.611C242.312 238.611 242.102 238.662 241.915 238.763C241.73 238.863 241.584 239.001 241.478 239.179C241.371 239.357 241.318 239.561 241.318 239.793V243H240.033ZM246.188 243.107C245.641 243.107 245.168 242.993 244.771 242.766C244.375 242.536 244.071 242.212 243.858 241.793C243.645 241.371 243.538 240.875 243.538 240.305C243.538 239.744 243.645 239.251 243.858 238.827C244.073 238.401 244.374 238.07 244.76 237.833C245.146 237.594 245.599 237.474 246.12 237.474C246.456 237.474 246.774 237.529 247.072 237.638C247.372 237.744 247.638 237.91 247.867 238.135C248.099 238.36 248.282 238.646 248.414 238.994C248.547 239.34 248.613 239.752 248.613 240.23V240.624H244.142V239.758H247.381C247.378 239.512 247.325 239.293 247.221 239.101C247.117 238.907 246.971 238.754 246.784 238.643C246.6 238.531 246.384 238.476 246.138 238.476C245.875 238.476 245.644 238.54 245.445 238.668C245.247 238.793 245.091 238.959 244.98 239.165C244.871 239.368 244.816 239.592 244.813 239.836V240.592C244.813 240.91 244.871 241.182 244.987 241.409C245.103 241.634 245.265 241.807 245.474 241.928C245.682 242.046 245.926 242.105 246.205 242.105C246.392 242.105 246.562 242.079 246.713 242.027C246.865 241.973 246.996 241.893 247.107 241.789C247.219 241.685 247.303 241.556 247.359 241.402L248.56 241.537C248.484 241.854 248.34 242.131 248.127 242.368C247.916 242.602 247.646 242.785 247.317 242.915C246.988 243.043 246.611 243.107 246.188 243.107ZM251.27 243.11C250.925 243.11 250.613 243.049 250.336 242.925C250.062 242.8 249.844 242.615 249.683 242.371C249.524 242.128 249.445 241.827 249.445 241.469C249.445 241.162 249.502 240.907 249.615 240.706C249.729 240.505 249.884 240.344 250.081 240.223C250.277 240.102 250.498 240.011 250.745 239.95C250.993 239.886 251.25 239.839 251.515 239.811C251.835 239.778 252.094 239.748 252.293 239.722C252.492 239.694 252.636 239.651 252.726 239.594C252.818 239.535 252.865 239.444 252.865 239.321V239.3C252.865 239.032 252.785 238.825 252.627 238.678C252.468 238.531 252.24 238.458 251.941 238.458C251.626 238.458 251.377 238.527 251.192 238.664C251.01 238.801 250.887 238.964 250.823 239.151L249.622 238.98C249.717 238.649 249.873 238.372 250.091 238.149C250.309 237.924 250.575 237.756 250.89 237.645C251.205 237.531 251.553 237.474 251.934 237.474C252.197 237.474 252.459 237.505 252.719 237.567C252.979 237.628 253.217 237.73 253.433 237.872C253.648 238.012 253.821 238.202 253.951 238.444C254.084 238.685 254.15 238.987 254.15 239.349V243H252.914V242.251H252.872C252.794 242.402 252.684 242.544 252.541 242.677C252.402 242.807 252.225 242.912 252.012 242.993C251.802 243.071 251.554 243.11 251.27 243.11ZM251.604 242.165C251.862 242.165 252.086 242.115 252.275 242.013C252.465 241.909 252.61 241.771 252.712 241.601C252.816 241.43 252.868 241.245 252.868 241.043V240.401C252.828 240.434 252.759 240.464 252.662 240.493C252.568 240.521 252.461 240.546 252.343 240.567C252.224 240.589 252.107 240.608 251.991 240.624C251.875 240.641 251.774 240.655 251.689 240.667C251.497 240.693 251.326 240.736 251.174 240.795C251.023 240.854 250.903 240.937 250.816 241.043C250.728 241.147 250.684 241.282 250.684 241.448C250.684 241.685 250.771 241.864 250.943 241.984C251.116 242.105 251.336 242.165 251.604 242.165Z" fill="black"/>
<path d="M342.888 482.727C342.854 482.416 342.715 482.175 342.468 482.002C342.225 481.829 341.907 481.743 341.517 481.743C341.242 481.743 341.007 481.784 340.81 481.867C340.614 481.95 340.463 482.062 340.359 482.205C340.255 482.347 340.202 482.509 340.199 482.691C340.199 482.843 340.234 482.974 340.302 483.085C340.373 483.196 340.469 483.291 340.59 483.369C340.711 483.445 340.844 483.509 340.991 483.561C341.138 483.613 341.286 483.657 341.435 483.692L342.117 483.863C342.392 483.927 342.656 484.013 342.909 484.122C343.165 484.231 343.393 484.368 343.594 484.534C343.798 484.7 343.959 484.9 344.077 485.134C344.196 485.369 344.255 485.643 344.255 485.958C344.255 486.384 344.146 486.759 343.928 487.084C343.71 487.406 343.395 487.658 342.983 487.84C342.574 488.02 342.078 488.11 341.495 488.11C340.93 488.11 340.438 488.022 340.022 487.847C339.607 487.672 339.283 487.416 339.049 487.08C338.817 486.744 338.691 486.335 338.672 485.852H339.968C339.987 486.105 340.066 486.316 340.203 486.484C340.34 486.652 340.519 486.777 340.739 486.86C340.962 486.943 341.21 486.984 341.485 486.984C341.771 486.984 342.022 486.942 342.238 486.857C342.455 486.769 342.626 486.648 342.749 486.494C342.872 486.338 342.935 486.156 342.937 485.947C342.935 485.758 342.879 485.602 342.77 485.479C342.661 485.353 342.509 485.249 342.312 485.166C342.118 485.081 341.891 485.005 341.63 484.939L340.803 484.726C340.204 484.572 339.731 484.339 339.383 484.026C339.037 483.711 338.864 483.294 338.864 482.773C338.864 482.344 338.98 481.969 339.212 481.647C339.446 481.325 339.765 481.075 340.167 480.898C340.57 480.718 341.026 480.628 341.535 480.628C342.051 480.628 342.503 480.718 342.891 480.898C343.282 481.075 343.588 481.323 343.811 481.64C344.033 481.955 344.148 482.317 344.155 482.727H342.888ZM348.096 482.545V483.54H344.96V482.545H348.096ZM345.735 481.239H347.02V486.359C347.02 486.532 347.046 486.665 347.098 486.757C347.153 486.847 347.224 486.909 347.311 486.942C347.399 486.975 347.496 486.991 347.603 486.991C347.683 486.991 347.756 486.986 347.823 486.974C347.891 486.962 347.943 486.951 347.979 486.942L348.196 487.947C348.127 487.97 348.029 487.996 347.901 488.025C347.775 488.053 347.621 488.07 347.439 488.075C347.117 488.084 346.827 488.036 346.569 487.929C346.311 487.82 346.106 487.652 345.955 487.425C345.806 487.197 345.732 486.913 345.735 486.572V481.239ZM352.648 485.706V482.545H353.933V488H352.687V487.031H352.63C352.507 487.336 352.305 487.586 352.023 487.78C351.743 487.974 351.399 488.071 350.989 488.071C350.632 488.071 350.316 487.992 350.041 487.833C349.769 487.672 349.556 487.439 349.402 487.134C349.248 486.826 349.171 486.454 349.171 486.018V482.545H350.457V485.82C350.457 486.165 350.551 486.44 350.741 486.643C350.93 486.847 351.179 486.949 351.487 486.949C351.676 486.949 351.859 486.903 352.037 486.81C352.215 486.718 352.36 486.581 352.474 486.398C352.59 486.214 352.648 485.983 352.648 485.706ZM357.279 488.096C356.851 488.096 356.467 487.986 356.129 487.766C355.79 487.545 355.523 487.226 355.326 486.807C355.13 486.388 355.032 485.879 355.032 485.28C355.032 484.674 355.131 484.162 355.33 483.746C355.531 483.327 355.802 483.011 356.143 482.798C356.484 482.582 356.864 482.474 357.283 482.474C357.603 482.474 357.865 482.529 358.071 482.638C358.277 482.744 358.441 482.873 358.561 483.025C358.682 483.174 358.776 483.315 358.842 483.447H358.895V480.727H360.184V488H358.92V487.141H358.842C358.776 487.273 358.68 487.414 358.554 487.563C358.429 487.71 358.263 487.835 358.057 487.94C357.851 488.044 357.592 488.096 357.279 488.096ZM357.638 487.041C357.91 487.041 358.142 486.968 358.334 486.821C358.526 486.672 358.671 486.465 358.771 486.2C358.87 485.934 358.92 485.625 358.92 485.273C358.92 484.92 358.87 484.613 358.771 484.353C358.674 484.093 358.529 483.89 358.338 483.746C358.148 483.601 357.915 483.529 357.638 483.529C357.352 483.529 357.112 483.604 356.921 483.753C356.729 483.902 356.585 484.108 356.487 484.371C356.39 484.634 356.342 484.934 356.342 485.273C356.342 485.614 356.39 485.918 356.487 486.185C356.587 486.451 356.733 486.66 356.924 486.814C357.118 486.965 357.356 487.041 357.638 487.041ZM362.353 490.045C362.178 490.045 362.016 490.031 361.867 490.003C361.72 489.977 361.603 489.946 361.515 489.911L361.813 488.909C362 488.964 362.167 488.99 362.314 488.987C362.461 488.985 362.59 488.939 362.701 488.849C362.815 488.761 362.911 488.614 362.989 488.408L363.099 488.114L361.121 482.545H362.484L363.742 486.665H363.798L365.059 482.545H366.426L364.242 488.661C364.14 488.949 364.006 489.197 363.837 489.403C363.669 489.611 363.463 489.77 363.22 489.879C362.978 489.99 362.689 490.045 362.353 490.045ZM370.787 488H369.381L371.941 480.727H373.568L376.131 488H374.725L372.783 482.219H372.726L370.787 488ZM370.833 485.148H374.668V486.207H370.833V485.148ZM377.033 488V482.545H378.279V483.455H378.336C378.435 483.14 378.606 482.897 378.847 482.727C379.091 482.554 379.369 482.467 379.682 482.467C379.753 482.467 379.832 482.471 379.92 482.478C380.01 482.483 380.084 482.491 380.143 482.503V483.685C380.089 483.666 380.003 483.65 379.884 483.636C379.768 483.619 379.656 483.611 379.547 483.611C379.312 483.611 379.102 483.662 378.915 483.763C378.73 483.863 378.584 484.001 378.478 484.179C378.371 484.357 378.318 484.561 378.318 484.793V488H377.033ZM383.188 488.107C382.641 488.107 382.168 487.993 381.771 487.766C381.375 487.536 381.071 487.212 380.858 486.793C380.645 486.371 380.538 485.875 380.538 485.305C380.538 484.744 380.645 484.251 380.858 483.827C381.073 483.401 381.374 483.07 381.76 482.833C382.146 482.594 382.599 482.474 383.12 482.474C383.456 482.474 383.774 482.529 384.072 482.638C384.372 482.744 384.638 482.91 384.867 483.135C385.099 483.36 385.282 483.646 385.414 483.994C385.547 484.34 385.613 484.752 385.613 485.23V485.624H381.142V484.758H384.381C384.378 484.512 384.325 484.293 384.221 484.101C384.117 483.907 383.971 483.754 383.784 483.643C383.6 483.531 383.384 483.476 383.138 483.476C382.875 483.476 382.644 483.54 382.445 483.668C382.247 483.793 382.091 483.959 381.98 484.165C381.871 484.368 381.816 484.592 381.813 484.836V485.592C381.813 485.91 381.871 486.182 381.987 486.409C382.103 486.634 382.265 486.807 382.474 486.928C382.682 487.046 382.926 487.105 383.205 487.105C383.392 487.105 383.562 487.079 383.713 487.027C383.865 486.973 383.996 486.893 384.107 486.789C384.219 486.685 384.303 486.556 384.359 486.402L385.56 486.537C385.484 486.854 385.34 487.131 385.127 487.368C384.916 487.602 384.646 487.785 384.317 487.915C383.988 488.043 383.611 488.107 383.188 488.107ZM388.27 488.11C387.925 488.11 387.613 488.049 387.336 487.925C387.062 487.8 386.844 487.615 386.683 487.371C386.524 487.128 386.445 486.827 386.445 486.469C386.445 486.162 386.502 485.907 386.615 485.706C386.729 485.505 386.884 485.344 387.081 485.223C387.277 485.102 387.498 485.011 387.745 484.95C387.993 484.886 388.25 484.839 388.515 484.811C388.835 484.778 389.094 484.748 389.293 484.722C389.492 484.694 389.636 484.651 389.726 484.594C389.818 484.535 389.865 484.444 389.865 484.321V484.3C389.865 484.032 389.785 483.825 389.627 483.678C389.468 483.531 389.24 483.458 388.941 483.458C388.626 483.458 388.377 483.527 388.192 483.664C388.01 483.801 387.887 483.964 387.823 484.151L386.622 483.98C386.717 483.649 386.873 483.372 387.091 483.149C387.309 482.924 387.575 482.756 387.89 482.645C388.205 482.531 388.553 482.474 388.934 482.474C389.197 482.474 389.459 482.505 389.719 482.567C389.979 482.628 390.217 482.73 390.433 482.872C390.648 483.012 390.821 483.202 390.951 483.444C391.084 483.685 391.15 483.987 391.15 484.349V488H389.914V487.251H389.872C389.794 487.402 389.684 487.544 389.541 487.677C389.402 487.807 389.225 487.912 389.012 487.993C388.802 488.071 388.554 488.11 388.27 488.11ZM388.604 487.165C388.862 487.165 389.086 487.115 389.275 487.013C389.465 486.909 389.61 486.771 389.712 486.601C389.816 486.43 389.868 486.245 389.868 486.043V485.401C389.828 485.434 389.759 485.464 389.662 485.493C389.568 485.521 389.461 485.546 389.343 485.567C389.224 485.589 389.107 485.608 388.991 485.624C388.875 485.641 388.774 485.655 388.689 485.667C388.497 485.693 388.326 485.736 388.174 485.795C388.023 485.854 387.903 485.937 387.816 486.043C387.728 486.147 387.684 486.282 387.684 486.448C387.684 486.685 387.771 486.864 387.943 486.984C388.116 487.105 388.336 487.165 388.604 487.165Z" fill="black"/>
</svg>
