<svg width="1024" height="1024" viewBox="0 0 1024 1024" fill="none" xmlns="http://www.w3.org/2000/svg">
<rect width="1024" height="1024" transform="matrix(0 1 -1 0 1024 0)" fill="white"/>
<path d="M740.5 251.715H779.855V196.143H731.285V209L655.57 209V163.285H599.855V111.857L544.143 111.857V63.2852L482.713 63.2852V40.4277L255.57 40.4277V69H188.428V39L147 39V364.715H188.428H255.57H306.621V401.949H286.418V839.346V860.785H546.285V944.715V957.215V984.715H587V957.215H761.643V944.715H767V872.572L908 784.215V718.715V652.715H913.5V602.5H740.5V251.715Z" fill="#E9D3D7" stroke="black" stroke-width="2"/>
<path d="M151 134.215V40.2148H110V134.215H151Z" fill="#912338" stroke="black" stroke-width="2"/>
<path d="M322.654 774.859H351.07V782.002H337.5C338.047 786.502 341.527 795.402 351.07 795.002V803.188H342.352V862.002H249.418V803.186H322.654V774.859Z" fill="#912338" stroke="black" stroke-width="2"/>
<path d="M398 803H452V861H398V803Z" fill="#912338" stroke="black" stroke-width="2"/>
<path d="M322.654 803.183V763.07H249.419V803.183H322.654Z" fill="#912338" stroke="black" stroke-width="2"/>
<path d="M816 621.643H797.589V603H741V668H816V621.643Z" fill="#912338" stroke="black" stroke-width="2"/>
<path d="M886.664 603H836.662V621.688H815.953V644.921V668.154H886.664V603Z" fill="#912338" stroke="black" stroke-width="2"/>
<path d="M837 622V603H798V622H837Z" fill="#912338" stroke="black" stroke-width="2"/>
<path d="M913 653V603H887V653H913Z" fill="#912338" stroke="black" stroke-width="2"/>
<path d="M604.999 305.929H710.713V299.5C699.683 299.5 693.642 290.5 692 286H710.713V253.156H604.999V305.929Z" fill="#912338" stroke="black" stroke-width="2"/>
<path d="M632.665 210.376H711V253H599.753V237C594.646 238.5 584.554 243.8 585.034 253H570.316H519V210.376H570.316V165H632.665V210.376Z" fill="#912338" stroke="black" stroke-width="2"/>
<path d="M256.715 92.8571V40H221V92.8571H256.715Z" fill="#912338" stroke="black" stroke-width="2"/>
<path d="M742.855 197.359H694.285V210.217H688.57V215.932H694.285H742.855V197.359Z" fill="#912338" stroke="black" stroke-width="2"/>
<path d="M710.713 253.156V215.93Z" fill="#FF8080"/>
<path d="M710.713 253.156V215.93" stroke="black" stroke-width="2"/>
<path d="M611.557 803.07H509.284Z" fill="#912338"/>
<path d="M611.557 803.07H509.284" stroke="black" stroke-width="2"/>
<path d="M740.713 553.677V251.643H763.57V215.93" stroke="black" stroke-width="2"/>
<path d="M913.467 652.673L908.037 652.672" stroke="black" stroke-width="2"/>
<path d="M714.594 728.18H680.373V737.523H611.557V803.07H714.594V737.523V728.18Z" fill="#912338" stroke="black" stroke-width="2"/>
<path d="M714.594 692.32V656.207H666.358V692.32H714.594Z" fill="#912338" stroke="black" stroke-width="2"/>
<path d="M617.428 737.215H714.428V722.857C704.37 722.743 698.952 713.238 697.5 708.5H714.428V656.215H639C639.4 663.987 628.833 670.31 623.5 672.5V656.215H617.428V737.215Z" fill="#912338" stroke="black" stroke-width="2"/>
<path d="M573.099 656.215H617.428V737.608V803.215H573.099H512.445H487.15H470.082H409.428V753.5C422.97 753.5 428.118 742.383 429 736.824H409.428V729.575V715.357C409.428 682.592 436.479 656.215 470.082 656.215H487.15H573.099Z" fill="#912338" stroke="black" stroke-width="2"/>
<path d="M460 803.072V782H408.929V803.072H460Z" fill="#912338" stroke="black" stroke-width="2"/>
<path d="M741 848.579V783.215H747.5V799C752.034 799.143 761.101 796.187 761.101 783.215H908V848.579H890.133V873.215H761.101V848.579H741Z" fill="#912338" stroke="black" stroke-width="2"/>
<path d="M647.022 693.942L648.915 699.667H648.99L650.879 693.942H652.328L649.764 701.215H648.137L645.577 693.942H647.022ZM653.286 701.215V693.942H654.603V700.11H657.806V701.215H653.286ZM661.691 697.049V698.108H658.417V697.049H661.691ZM662.775 701.215V700.263L665.3 697.788C665.542 697.544 665.743 697.328 665.904 697.138C666.065 696.949 666.185 696.765 666.266 696.588C666.346 696.41 666.387 696.221 666.387 696.02C666.387 695.79 666.335 695.593 666.23 695.43C666.126 695.264 665.983 695.136 665.801 695.047C665.618 694.957 665.411 694.912 665.179 694.912C664.94 694.912 664.731 694.961 664.551 695.061C664.371 695.158 664.231 695.296 664.132 695.476C664.035 695.656 663.986 695.87 663.986 696.119H662.733C662.733 695.657 662.838 695.256 663.049 694.915C663.259 694.574 663.549 694.31 663.919 694.123C664.29 693.936 664.717 693.843 665.197 693.843C665.685 693.843 666.113 693.934 666.483 694.116C666.852 694.298 667.138 694.548 667.342 694.865C667.548 695.183 667.651 695.545 667.651 695.952C667.651 696.224 667.599 696.492 667.495 696.755C667.391 697.017 667.207 697.309 666.944 697.628C666.684 697.948 666.318 698.335 665.847 698.789L664.593 700.064V700.114H667.761V701.215H662.775ZM671.674 701.353C671.09 701.353 670.588 701.205 670.169 700.909C669.752 700.611 669.431 700.181 669.206 699.62C668.984 699.057 668.873 698.379 668.873 697.586C668.875 696.792 668.987 696.118 669.21 695.561C669.435 695.003 669.756 694.577 670.172 694.283C670.591 693.989 671.092 693.843 671.674 693.843C672.257 693.843 672.757 693.989 673.176 694.283C673.596 694.577 673.916 695.003 674.139 695.561C674.364 696.12 674.476 696.795 674.476 697.586C674.476 698.381 674.364 699.06 674.139 699.624C673.916 700.185 673.596 700.614 673.176 700.909C672.76 701.205 672.259 701.353 671.674 701.353ZM671.674 700.242C672.129 700.242 672.488 700.018 672.75 699.571C673.016 699.121 673.148 698.459 673.148 697.586C673.148 697.008 673.088 696.523 672.967 696.13C672.846 695.737 672.676 695.441 672.456 695.242C672.235 695.041 671.975 694.94 671.674 694.94C671.222 694.94 670.865 695.165 670.602 695.615C670.339 696.062 670.207 696.719 670.204 697.586C670.202 698.166 670.26 698.653 670.378 699.049C670.499 699.444 670.669 699.742 670.89 699.944C671.11 700.142 671.371 700.242 671.674 700.242ZM678.266 701.314C677.755 701.314 677.3 701.227 676.903 701.051C676.507 700.876 676.195 700.632 675.965 700.32C675.735 700.007 675.613 699.646 675.599 699.237H676.934C676.946 699.433 677.011 699.605 677.13 699.752C677.248 699.896 677.406 700.009 677.602 700.089C677.799 700.17 678.019 700.21 678.263 700.21C678.523 700.21 678.754 700.165 678.955 700.075C679.156 699.983 679.314 699.855 679.427 699.691C679.541 699.528 679.597 699.34 679.594 699.127C679.597 698.907 679.54 698.712 679.424 698.544C679.308 698.376 679.14 698.245 678.92 698.15C678.702 698.056 678.439 698.008 678.131 698.008H677.488V696.993H678.131C678.385 696.993 678.606 696.949 678.795 696.861C678.987 696.774 679.137 696.65 679.246 696.492C679.355 696.331 679.408 696.145 679.406 695.934C679.408 695.728 679.362 695.55 679.268 695.398C679.175 695.244 679.044 695.125 678.873 695.039C678.705 694.954 678.508 694.912 678.28 694.912C678.058 694.912 677.852 694.952 677.662 695.032C677.473 695.113 677.32 695.228 677.204 695.377C677.088 695.524 677.027 695.699 677.02 695.902H675.752C675.761 695.495 675.879 695.138 676.104 694.83C676.331 694.52 676.634 694.278 677.013 694.105C677.391 693.93 677.816 693.843 678.287 693.843C678.773 693.843 679.194 693.934 679.552 694.116C679.912 694.296 680.19 694.539 680.386 694.844C680.583 695.15 680.681 695.487 680.681 695.856C680.683 696.266 680.563 696.609 680.319 696.886C680.077 697.163 679.76 697.344 679.367 697.429V697.486C679.878 697.557 680.27 697.747 680.542 698.054C680.817 698.36 680.953 698.74 680.951 699.194C680.951 699.601 680.835 699.966 680.603 700.288C680.373 700.608 680.056 700.859 679.651 701.041C679.249 701.223 678.787 701.314 678.266 701.314Z" fill="white"/>
<path d="M203.888 223.941C203.854 223.631 203.715 223.39 203.468 223.217C203.225 223.044 202.907 222.958 202.517 222.958C202.242 222.958 202.007 222.999 201.81 223.082C201.614 223.165 201.463 223.277 201.359 223.419C201.255 223.561 201.202 223.724 201.199 223.906C201.199 224.057 201.234 224.189 201.302 224.3C201.373 224.411 201.469 224.506 201.59 224.584C201.711 224.66 201.844 224.724 201.991 224.776C202.138 224.828 202.286 224.872 202.435 224.907L203.117 225.078C203.392 225.142 203.656 225.228 203.909 225.337C204.165 225.446 204.393 225.583 204.594 225.749C204.798 225.915 204.959 226.115 205.077 226.349C205.196 226.583 205.255 226.858 205.255 227.173C205.255 227.599 205.146 227.974 204.928 228.299C204.71 228.621 204.395 228.873 203.983 229.055C203.574 229.235 203.078 229.325 202.495 229.325C201.93 229.325 201.438 229.237 201.022 229.062C200.607 228.887 200.283 228.631 200.049 228.295C199.817 227.959 199.691 227.549 199.672 227.066H200.968C200.987 227.32 201.066 227.53 201.203 227.699C201.34 227.867 201.519 227.992 201.739 228.075C201.962 228.158 202.21 228.199 202.485 228.199C202.771 228.199 203.022 228.157 203.238 228.071C203.455 227.984 203.626 227.863 203.749 227.709C203.872 227.553 203.935 227.371 203.937 227.162C203.935 226.973 203.879 226.817 203.77 226.694C203.661 226.568 203.509 226.464 203.312 226.381C203.118 226.296 202.891 226.22 202.63 226.154L201.803 225.941C201.204 225.787 200.731 225.554 200.383 225.241C200.037 224.926 199.864 224.508 199.864 223.988C199.864 223.559 199.98 223.184 200.212 222.862C200.446 222.54 200.765 222.29 201.167 222.113C201.57 221.933 202.026 221.843 202.535 221.843C203.051 221.843 203.503 221.933 203.891 222.113C204.282 222.29 204.588 222.538 204.811 222.855C205.033 223.17 205.148 223.532 205.155 223.941H203.888ZM209.096 223.76V224.755H205.96V223.76H209.096ZM206.735 222.453H208.02V227.574C208.02 227.747 208.046 227.88 208.098 227.972C208.153 228.062 208.224 228.123 208.311 228.157C208.399 228.19 208.496 228.206 208.603 228.206C208.683 228.206 208.756 228.2 208.823 228.189C208.891 228.177 208.943 228.166 208.979 228.157L209.196 229.162C209.127 229.185 209.029 229.211 208.901 229.24C208.775 229.268 208.621 229.285 208.439 229.289C208.117 229.299 207.827 229.25 207.569 229.144C207.311 229.035 207.106 228.867 206.955 228.64C206.806 228.412 206.732 228.128 206.735 227.787V222.453ZM213.648 226.921V223.76H214.933V229.215H213.687V228.245H213.63C213.507 228.551 213.305 228.801 213.023 228.995C212.743 229.189 212.399 229.286 211.989 229.286C211.632 229.286 211.316 229.207 211.041 229.048C210.769 228.887 210.556 228.654 210.402 228.348C210.248 228.041 210.171 227.669 210.171 227.233V223.76H211.457V227.034C211.457 227.38 211.551 227.655 211.741 227.858C211.93 228.062 212.179 228.164 212.487 228.164C212.676 228.164 212.859 228.118 213.037 228.025C213.215 227.933 213.36 227.796 213.474 227.613C213.59 227.429 213.648 227.198 213.648 226.921ZM218.279 229.311C217.851 229.311 217.467 229.201 217.129 228.98C216.79 228.76 216.523 228.441 216.326 228.022C216.13 227.603 216.032 227.094 216.032 226.495C216.032 225.889 216.131 225.377 216.33 224.961C216.531 224.542 216.802 224.225 217.143 224.012C217.484 223.797 217.864 223.689 218.283 223.689C218.603 223.689 218.865 223.744 219.071 223.853C219.277 223.959 219.441 224.088 219.561 224.24C219.682 224.389 219.776 224.53 219.842 224.662H219.895V221.942H221.184V229.215H219.92V228.355H219.842C219.776 228.488 219.68 228.629 219.554 228.778C219.429 228.925 219.263 229.05 219.057 229.154C218.851 229.259 218.592 229.311 218.279 229.311ZM218.638 228.256C218.91 228.256 219.142 228.183 219.334 228.036C219.526 227.887 219.671 227.68 219.771 227.414C219.87 227.149 219.92 226.84 219.92 226.488C219.92 226.135 219.87 225.828 219.771 225.568C219.674 225.307 219.529 225.105 219.338 224.961C219.148 224.816 218.915 224.744 218.638 224.744C218.352 224.744 218.112 224.819 217.921 224.968C217.729 225.117 217.585 225.323 217.487 225.586C217.39 225.848 217.342 226.149 217.342 226.488C217.342 226.828 217.39 227.133 217.487 227.4C217.587 227.665 217.733 227.875 217.924 228.029C218.118 228.18 218.356 228.256 218.638 228.256ZM223.353 231.26C223.178 231.26 223.016 231.246 222.867 231.218C222.72 231.192 222.603 231.161 222.515 231.125L222.813 230.124C223 230.178 223.167 230.204 223.314 230.202C223.461 230.2 223.59 230.154 223.701 230.064C223.815 229.976 223.911 229.829 223.989 229.623L224.099 229.328L222.121 223.76H223.484L224.742 227.88H224.798L226.059 223.76H227.426L225.242 229.875C225.14 230.164 225.006 230.412 224.837 230.618C224.669 230.826 224.463 230.984 224.22 231.093C223.978 231.205 223.689 231.26 223.353 231.26ZM231.787 229.215H230.381L232.941 221.942H234.568L237.131 229.215H235.725L233.783 223.434H233.726L231.787 229.215ZM231.833 226.363H235.668V227.422H231.833V226.363ZM238.033 229.215V223.76H239.279V224.669H239.336C239.435 224.355 239.606 224.112 239.847 223.941C240.091 223.769 240.369 223.682 240.682 223.682C240.753 223.682 240.832 223.686 240.92 223.693C241.01 223.698 241.084 223.706 241.143 223.718V224.9C241.089 224.881 241.003 224.865 240.884 224.85C240.768 224.834 240.656 224.826 240.547 224.826C240.312 224.826 240.102 224.877 239.915 224.978C239.73 225.078 239.584 225.216 239.478 225.394C239.371 225.571 239.318 225.776 239.318 226.008V229.215H238.033ZM244.188 229.321C243.641 229.321 243.168 229.208 242.771 228.98C242.375 228.751 242.071 228.426 241.858 228.007C241.645 227.586 241.538 227.09 241.538 226.52C241.538 225.958 241.645 225.466 241.858 225.042C242.073 224.616 242.374 224.285 242.76 224.048C243.146 223.809 243.599 223.689 244.12 223.689C244.456 223.689 244.774 223.744 245.072 223.853C245.372 223.959 245.638 224.125 245.867 224.35C246.099 224.575 246.282 224.861 246.414 225.209C246.547 225.555 246.613 225.967 246.613 226.445V226.839H242.142V225.973H245.381C245.378 225.726 245.325 225.507 245.221 225.316C245.117 225.122 244.971 224.969 244.784 224.858C244.6 224.746 244.384 224.691 244.138 224.691C243.875 224.691 243.644 224.755 243.445 224.882C243.247 225.008 243.091 225.174 242.98 225.38C242.871 225.583 242.816 225.807 242.813 226.051V226.807C242.813 227.124 242.871 227.397 242.987 227.624C243.103 227.849 243.265 228.022 243.474 228.142C243.682 228.261 243.926 228.32 244.205 228.32C244.392 228.32 244.562 228.294 244.713 228.242C244.865 228.187 244.996 228.108 245.107 228.004C245.219 227.9 245.303 227.771 245.359 227.617L246.56 227.752C246.484 228.069 246.34 228.346 246.127 228.583C245.916 228.817 245.646 228.999 245.317 229.13C244.988 229.257 244.611 229.321 244.188 229.321ZM249.27 229.325C248.925 229.325 248.613 229.263 248.336 229.14C248.062 229.015 247.844 228.83 247.683 228.586C247.524 228.342 247.445 228.042 247.445 227.684C247.445 227.377 247.502 227.122 247.615 226.921C247.729 226.72 247.884 226.559 248.081 226.438C248.277 226.317 248.498 226.226 248.745 226.164C248.993 226.1 249.25 226.054 249.515 226.026C249.835 225.993 250.094 225.963 250.293 225.937C250.492 225.909 250.636 225.866 250.726 225.809C250.818 225.75 250.865 225.659 250.865 225.536V225.515C250.865 225.247 250.785 225.04 250.627 224.893C250.468 224.746 250.24 224.673 249.941 224.673C249.626 224.673 249.377 224.742 249.192 224.879C249.01 225.016 248.887 225.178 248.823 225.365L247.622 225.195C247.717 224.864 247.873 224.587 248.091 224.364C248.309 224.139 248.575 223.971 248.89 223.86C249.205 223.746 249.553 223.689 249.934 223.689C250.197 223.689 250.459 223.72 250.719 223.782C250.979 223.843 251.217 223.945 251.433 224.087C251.648 224.227 251.821 224.417 251.951 224.659C252.084 224.9 252.15 225.202 252.15 225.564V229.215H250.914V228.466H250.872C250.794 228.617 250.684 228.759 250.541 228.892C250.402 229.022 250.225 229.127 250.012 229.208C249.802 229.286 249.554 229.325 249.27 229.325ZM249.604 228.38C249.862 228.38 250.086 228.329 250.275 228.228C250.465 228.123 250.61 227.986 250.712 227.816C250.816 227.645 250.868 227.459 250.868 227.258V226.615C250.828 226.649 250.759 226.679 250.662 226.708C250.568 226.736 250.461 226.761 250.343 226.782C250.224 226.804 250.107 226.823 249.991 226.839C249.875 226.856 249.774 226.87 249.689 226.882C249.497 226.908 249.326 226.95 249.174 227.01C249.023 227.069 248.903 227.152 248.816 227.258C248.728 227.362 248.684 227.497 248.684 227.663C248.684 227.9 248.771 228.078 248.943 228.199C249.116 228.32 249.336 228.38 249.604 228.38Z" fill="black"/>
<path d="M637.888 419.727C637.854 419.416 637.715 419.175 637.468 419.002C637.225 418.829 636.907 418.743 636.517 418.743C636.242 418.743 636.007 418.784 635.81 418.867C635.614 418.95 635.463 419.062 635.359 419.205C635.255 419.347 635.202 419.509 635.199 419.691C635.199 419.843 635.234 419.974 635.302 420.085C635.373 420.196 635.469 420.291 635.59 420.369C635.711 420.445 635.844 420.509 635.991 420.561C636.138 420.613 636.286 420.657 636.435 420.692L637.117 420.863C637.392 420.927 637.656 421.013 637.909 421.122C638.165 421.231 638.393 421.368 638.594 421.534C638.798 421.7 638.959 421.9 639.077 422.134C639.196 422.369 639.255 422.643 639.255 422.958C639.255 423.384 639.146 423.759 638.928 424.084C638.71 424.406 638.395 424.658 637.983 424.84C637.574 425.02 637.078 425.11 636.495 425.11C635.93 425.11 635.438 425.022 635.022 424.847C634.607 424.672 634.283 424.416 634.049 424.08C633.817 423.744 633.691 423.335 633.672 422.852H634.968C634.987 423.105 635.066 423.316 635.203 423.484C635.34 423.652 635.519 423.777 635.739 423.86C635.962 423.943 636.21 423.984 636.485 423.984C636.771 423.984 637.022 423.942 637.238 423.857C637.455 423.769 637.626 423.648 637.749 423.494C637.872 423.338 637.935 423.156 637.937 422.947C637.935 422.758 637.879 422.602 637.77 422.479C637.661 422.353 637.509 422.249 637.312 422.166C637.118 422.081 636.891 422.005 636.63 421.939L635.803 421.726C635.204 421.572 634.731 421.339 634.383 421.026C634.037 420.711 633.864 420.294 633.864 419.773C633.864 419.344 633.98 418.969 634.212 418.647C634.446 418.325 634.765 418.075 635.167 417.898C635.57 417.718 636.026 417.628 636.535 417.628C637.051 417.628 637.503 417.718 637.891 417.898C638.282 418.075 638.588 418.323 638.811 418.64C639.033 418.955 639.148 419.317 639.155 419.727H637.888ZM643.096 419.545V420.54H639.96V419.545H643.096ZM640.735 418.239H642.02V423.359C642.02 423.532 642.046 423.665 642.098 423.757C642.153 423.847 642.224 423.909 642.311 423.942C642.399 423.975 642.496 423.991 642.603 423.991C642.683 423.991 642.756 423.986 642.823 423.974C642.891 423.962 642.943 423.951 642.979 423.942L643.196 424.947C643.127 424.97 643.029 424.996 642.901 425.025C642.775 425.053 642.621 425.07 642.439 425.075C642.117 425.084 641.827 425.036 641.569 424.929C641.311 424.82 641.106 424.652 640.955 424.425C640.806 424.197 640.732 423.913 640.735 423.572V418.239ZM647.648 422.706V419.545H648.933V425H647.687V424.031H647.63C647.507 424.336 647.305 424.586 647.023 424.78C646.743 424.974 646.399 425.071 645.989 425.071C645.632 425.071 645.316 424.992 645.041 424.833C644.769 424.672 644.556 424.439 644.402 424.134C644.248 423.826 644.171 423.454 644.171 423.018V419.545H645.457V422.82C645.457 423.165 645.551 423.44 645.741 423.643C645.93 423.847 646.179 423.949 646.487 423.949C646.676 423.949 646.859 423.903 647.037 423.81C647.215 423.718 647.36 423.581 647.474 423.398C647.59 423.214 647.648 422.983 647.648 422.706ZM652.279 425.096C651.851 425.096 651.467 424.986 651.129 424.766C650.79 424.545 650.523 424.226 650.326 423.807C650.13 423.388 650.032 422.879 650.032 422.28C650.032 421.674 650.131 421.162 650.33 420.746C650.531 420.327 650.802 420.011 651.143 419.798C651.484 419.582 651.864 419.474 652.283 419.474C652.603 419.474 652.865 419.529 653.071 419.638C653.277 419.744 653.441 419.873 653.561 420.025C653.682 420.174 653.776 420.315 653.842 420.447H653.895V417.727H655.184V425H653.92V424.141H653.842C653.776 424.273 653.68 424.414 653.554 424.563C653.429 424.71 653.263 424.835 653.057 424.94C652.851 425.044 652.592 425.096 652.279 425.096ZM652.638 424.041C652.91 424.041 653.142 423.968 653.334 423.821C653.526 423.672 653.671 423.465 653.771 423.2C653.87 422.934 653.92 422.625 653.92 422.273C653.92 421.92 653.87 421.613 653.771 421.353C653.674 421.093 653.529 420.89 653.338 420.746C653.148 420.601 652.915 420.529 652.638 420.529C652.352 420.529 652.112 420.604 651.921 420.753C651.729 420.902 651.585 421.108 651.487 421.371C651.39 421.634 651.342 421.934 651.342 422.273C651.342 422.614 651.39 422.918 651.487 423.185C651.587 423.451 651.733 423.66 651.924 423.814C652.118 423.965 652.356 424.041 652.638 424.041ZM657.353 427.045C657.178 427.045 657.016 427.031 656.867 427.003C656.72 426.977 656.603 426.946 656.515 426.911L656.813 425.909C657 425.964 657.167 425.99 657.314 425.987C657.461 425.985 657.59 425.939 657.701 425.849C657.815 425.761 657.911 425.614 657.989 425.408L658.099 425.114L656.121 419.545H657.484L658.742 423.665H658.798L660.059 419.545H661.426L659.242 425.661C659.14 425.949 659.006 426.197 658.837 426.403C658.669 426.611 658.463 426.77 658.22 426.879C657.978 426.99 657.689 427.045 657.353 427.045ZM665.787 425H664.381L666.941 417.727H668.568L671.131 425H669.725L667.783 419.219H667.726L665.787 425ZM665.833 422.148H669.668V423.207H665.833V422.148ZM672.033 425V419.545H673.279V420.455H673.336C673.435 420.14 673.606 419.897 673.847 419.727C674.091 419.554 674.369 419.467 674.682 419.467C674.753 419.467 674.832 419.471 674.92 419.478C675.01 419.483 675.084 419.491 675.143 419.503V420.685C675.089 420.666 675.003 420.65 674.884 420.636C674.768 420.619 674.656 420.611 674.547 420.611C674.312 420.611 674.102 420.662 673.915 420.763C673.73 420.863 673.584 421.001 673.478 421.179C673.371 421.357 673.318 421.561 673.318 421.793V425H672.033ZM678.188 425.107C677.641 425.107 677.168 424.993 676.771 424.766C676.375 424.536 676.071 424.212 675.858 423.793C675.645 423.371 675.538 422.875 675.538 422.305C675.538 421.744 675.645 421.251 675.858 420.827C676.073 420.401 676.374 420.07 676.76 419.833C677.146 419.594 677.599 419.474 678.12 419.474C678.456 419.474 678.774 419.529 679.072 419.638C679.372 419.744 679.638 419.91 679.867 420.135C680.099 420.36 680.282 420.646 680.414 420.994C680.547 421.34 680.613 421.752 680.613 422.23V422.624H676.142V421.758H679.381C679.378 421.512 679.325 421.293 679.221 421.101C679.117 420.907 678.971 420.754 678.784 420.643C678.6 420.531 678.384 420.476 678.138 420.476C677.875 420.476 677.644 420.54 677.445 420.668C677.247 420.793 677.091 420.959 676.98 421.165C676.871 421.368 676.816 421.592 676.813 421.836V422.592C676.813 422.91 676.871 423.182 676.987 423.409C677.103 423.634 677.265 423.807 677.474 423.928C677.682 424.046 677.926 424.105 678.205 424.105C678.392 424.105 678.562 424.079 678.713 424.027C678.865 423.973 678.996 423.893 679.107 423.789C679.219 423.685 679.303 423.556 679.359 423.402L680.56 423.537C680.484 423.854 680.34 424.131 680.127 424.368C679.916 424.602 679.646 424.785 679.317 424.915C678.988 425.043 678.611 425.107 678.188 425.107ZM683.27 425.11C682.925 425.11 682.613 425.049 682.336 424.925C682.062 424.8 681.844 424.615 681.683 424.371C681.524 424.128 681.445 423.827 681.445 423.469C681.445 423.162 681.502 422.907 681.615 422.706C681.729 422.505 681.884 422.344 682.081 422.223C682.277 422.102 682.498 422.011 682.745 421.95C682.993 421.886 683.25 421.839 683.515 421.811C683.835 421.778 684.094 421.748 684.293 421.722C684.492 421.694 684.636 421.651 684.726 421.594C684.818 421.535 684.865 421.444 684.865 421.321V421.3C684.865 421.032 684.785 420.825 684.627 420.678C684.468 420.531 684.24 420.458 683.941 420.458C683.626 420.458 683.377 420.527 683.192 420.664C683.01 420.801 682.887 420.964 682.823 421.151L681.622 420.98C681.717 420.649 681.873 420.372 682.091 420.149C682.309 419.924 682.575 419.756 682.89 419.645C683.205 419.531 683.553 419.474 683.934 419.474C684.197 419.474 684.459 419.505 684.719 419.567C684.979 419.628 685.217 419.73 685.433 419.872C685.648 420.012 685.821 420.202 685.951 420.444C686.084 420.685 686.15 420.987 686.15 421.349V425H684.914V424.251H684.872C684.794 424.402 684.684 424.544 684.541 424.677C684.402 424.807 684.225 424.912 684.012 424.993C683.802 425.071 683.554 425.11 683.27 425.11ZM683.604 424.165C683.862 424.165 684.086 424.115 684.275 424.013C684.465 423.909 684.61 423.771 684.712 423.601C684.816 423.43 684.868 423.245 684.868 423.043V422.401C684.828 422.434 684.759 422.464 684.662 422.493C684.568 422.521 684.461 422.546 684.343 422.567C684.224 422.589 684.107 422.608 683.991 422.624C683.875 422.641 683.774 422.655 683.689 422.667C683.497 422.693 683.326 422.736 683.174 422.795C683.023 422.854 682.903 422.937 682.816 423.043C682.728 423.147 682.684 423.282 682.684 423.448C682.684 423.685 682.771 423.864 682.943 423.984C683.116 424.105 683.336 424.165 683.604 424.165Z" fill="black"/>
<path d="M472.888 130.727C472.854 130.416 472.715 130.175 472.468 130.002C472.225 129.829 471.907 129.743 471.517 129.743C471.242 129.743 471.007 129.784 470.81 129.867C470.614 129.95 470.463 130.062 470.359 130.205C470.255 130.347 470.202 130.509 470.199 130.691C470.199 130.843 470.234 130.974 470.302 131.085C470.373 131.196 470.469 131.291 470.59 131.369C470.711 131.445 470.844 131.509 470.991 131.561C471.138 131.613 471.286 131.657 471.435 131.692L472.117 131.863C472.392 131.927 472.656 132.013 472.909 132.122C473.165 132.231 473.393 132.368 473.594 132.534C473.798 132.7 473.959 132.9 474.077 133.134C474.196 133.369 474.255 133.643 474.255 133.958C474.255 134.384 474.146 134.759 473.928 135.084C473.71 135.406 473.395 135.658 472.983 135.84C472.574 136.02 472.078 136.11 471.495 136.11C470.93 136.11 470.438 136.022 470.022 135.847C469.607 135.672 469.283 135.416 469.049 135.08C468.817 134.744 468.691 134.335 468.672 133.852H469.968C469.987 134.105 470.066 134.316 470.203 134.484C470.34 134.652 470.519 134.777 470.739 134.86C470.962 134.943 471.21 134.984 471.485 134.984C471.771 134.984 472.022 134.942 472.238 134.857C472.455 134.769 472.626 134.648 472.749 134.494C472.872 134.338 472.935 134.156 472.937 133.947C472.935 133.758 472.879 133.602 472.77 133.479C472.661 133.353 472.509 133.249 472.312 133.166C472.118 133.081 471.891 133.005 471.63 132.939L470.803 132.726C470.204 132.572 469.731 132.339 469.383 132.026C469.037 131.711 468.864 131.294 468.864 130.773C468.864 130.344 468.98 129.969 469.212 129.647C469.446 129.325 469.765 129.075 470.167 128.898C470.57 128.718 471.026 128.628 471.535 128.628C472.051 128.628 472.503 128.718 472.891 128.898C473.282 129.075 473.588 129.323 473.811 129.64C474.033 129.955 474.148 130.317 474.155 130.727H472.888ZM478.096 130.545V131.54H474.96V130.545H478.096ZM475.735 129.239H477.02V134.359C477.02 134.532 477.046 134.665 477.098 134.757C477.153 134.847 477.224 134.909 477.311 134.942C477.399 134.975 477.496 134.991 477.603 134.991C477.683 134.991 477.756 134.986 477.823 134.974C477.891 134.962 477.943 134.951 477.979 134.942L478.196 135.947C478.127 135.97 478.029 135.996 477.901 136.025C477.775 136.053 477.621 136.07 477.439 136.075C477.117 136.084 476.827 136.036 476.569 135.929C476.311 135.82 476.106 135.652 475.955 135.425C475.806 135.197 475.732 134.913 475.735 134.572V129.239ZM482.648 133.706V130.545H483.933V136H482.687V135.031H482.63C482.507 135.336 482.305 135.586 482.023 135.78C481.743 135.974 481.399 136.071 480.989 136.071C480.632 136.071 480.316 135.992 480.041 135.833C479.769 135.672 479.556 135.439 479.402 135.134C479.248 134.826 479.171 134.454 479.171 134.018V130.545H480.457V133.82C480.457 134.165 480.551 134.44 480.741 134.643C480.93 134.847 481.179 134.949 481.487 134.949C481.676 134.949 481.859 134.903 482.037 134.81C482.215 134.718 482.36 134.581 482.474 134.398C482.59 134.214 482.648 133.983 482.648 133.706ZM487.279 136.096C486.851 136.096 486.467 135.986 486.129 135.766C485.79 135.545 485.523 135.226 485.326 134.807C485.13 134.388 485.032 133.879 485.032 133.28C485.032 132.674 485.131 132.162 485.33 131.746C485.531 131.327 485.802 131.011 486.143 130.798C486.484 130.582 486.864 130.474 487.283 130.474C487.603 130.474 487.865 130.529 488.071 130.638C488.277 130.744 488.441 130.873 488.561 131.025C488.682 131.174 488.776 131.315 488.842 131.447H488.895V128.727H490.184V136H488.92V135.141H488.842C488.776 135.273 488.68 135.414 488.554 135.563C488.429 135.71 488.263 135.835 488.057 135.94C487.851 136.044 487.592 136.096 487.279 136.096ZM487.638 135.041C487.91 135.041 488.142 134.968 488.334 134.821C488.526 134.672 488.671 134.465 488.771 134.2C488.87 133.934 488.92 133.625 488.92 133.273C488.92 132.92 488.87 132.613 488.771 132.353C488.674 132.093 488.529 131.89 488.338 131.746C488.148 131.601 487.915 131.529 487.638 131.529C487.352 131.529 487.112 131.604 486.921 131.753C486.729 131.902 486.585 132.108 486.487 132.371C486.39 132.634 486.342 132.934 486.342 133.273C486.342 133.614 486.39 133.918 486.487 134.185C486.587 134.451 486.733 134.66 486.924 134.814C487.118 134.965 487.356 135.041 487.638 135.041ZM492.353 138.045C492.178 138.045 492.016 138.031 491.867 138.003C491.72 137.977 491.603 137.946 491.515 137.911L491.813 136.909C492 136.964 492.167 136.99 492.314 136.987C492.461 136.985 492.59 136.939 492.701 136.849C492.815 136.761 492.911 136.614 492.989 136.408L493.099 136.114L491.121 130.545H492.484L493.742 134.665H493.798L495.059 130.545H496.426L494.242 136.661C494.14 136.949 494.006 137.197 493.837 137.403C493.669 137.611 493.463 137.77 493.22 137.879C492.978 137.99 492.689 138.045 492.353 138.045ZM500.787 136H499.381L501.941 128.727H503.568L506.131 136H504.725L502.783 130.219H502.726L500.787 136ZM500.833 133.148H504.668V134.207H500.833V133.148ZM507.033 136V130.545H508.279V131.455H508.336C508.435 131.14 508.606 130.897 508.847 130.727C509.091 130.554 509.369 130.467 509.682 130.467C509.753 130.467 509.832 130.471 509.92 130.478C510.01 130.483 510.084 130.491 510.143 130.503V131.685C510.089 131.666 510.003 131.65 509.884 131.636C509.768 131.619 509.656 131.611 509.547 131.611C509.312 131.611 509.102 131.662 508.915 131.763C508.73 131.863 508.584 132.001 508.478 132.179C508.371 132.357 508.318 132.561 508.318 132.793V136H507.033ZM513.188 136.107C512.641 136.107 512.168 135.993 511.771 135.766C511.375 135.536 511.071 135.212 510.858 134.793C510.645 134.371 510.538 133.875 510.538 133.305C510.538 132.744 510.645 132.251 510.858 131.827C511.073 131.401 511.374 131.07 511.76 130.833C512.146 130.594 512.599 130.474 513.12 130.474C513.456 130.474 513.774 130.529 514.072 130.638C514.372 130.744 514.638 130.91 514.867 131.135C515.099 131.36 515.282 131.646 515.414 131.994C515.547 132.34 515.613 132.752 515.613 133.23V133.624H511.142V132.758H514.381C514.378 132.512 514.325 132.293 514.221 132.101C514.117 131.907 513.971 131.754 513.784 131.643C513.6 131.531 513.384 131.476 513.138 131.476C512.875 131.476 512.644 131.54 512.445 131.668C512.247 131.793 512.091 131.959 511.98 132.165C511.871 132.368 511.816 132.592 511.813 132.836V133.592C511.813 133.91 511.871 134.182 511.987 134.409C512.103 134.634 512.265 134.807 512.474 134.928C512.682 135.046 512.926 135.105 513.205 135.105C513.392 135.105 513.562 135.079 513.713 135.027C513.865 134.973 513.996 134.893 514.107 134.789C514.219 134.685 514.303 134.556 514.359 134.402L515.56 134.537C515.484 134.854 515.34 135.131 515.127 135.368C514.916 135.602 514.646 135.785 514.317 135.915C513.988 136.043 513.611 136.107 513.188 136.107ZM518.27 136.11C517.925 136.11 517.613 136.049 517.336 135.925C517.062 135.8 516.844 135.615 516.683 135.371C516.524 135.128 516.445 134.827 516.445 134.469C516.445 134.162 516.502 133.907 516.615 133.706C516.729 133.505 516.884 133.344 517.081 133.223C517.277 133.102 517.498 133.011 517.745 132.95C517.993 132.886 518.25 132.839 518.515 132.811C518.835 132.778 519.094 132.748 519.293 132.722C519.492 132.694 519.636 132.651 519.726 132.594C519.818 132.535 519.865 132.444 519.865 132.321V132.3C519.865 132.032 519.785 131.825 519.627 131.678C519.468 131.531 519.24 131.458 518.941 131.458C518.626 131.458 518.377 131.527 518.192 131.664C518.01 131.801 517.887 131.964 517.823 132.151L516.622 131.98C516.717 131.649 516.873 131.372 517.091 131.149C517.309 130.924 517.575 130.756 517.89 130.645C518.205 130.531 518.553 130.474 518.934 130.474C519.197 130.474 519.459 130.505 519.719 130.567C519.979 130.628 520.217 130.73 520.433 130.872C520.648 131.012 520.821 131.202 520.951 131.444C521.084 131.685 521.15 131.987 521.15 132.349V136H519.914V135.251H519.872C519.794 135.402 519.684 135.544 519.541 135.677C519.402 135.807 519.225 135.912 519.012 135.993C518.802 136.071 518.554 136.11 518.27 136.11ZM518.604 135.165C518.862 135.165 519.086 135.115 519.275 135.013C519.465 134.909 519.61 134.771 519.712 134.601C519.816 134.43 519.868 134.245 519.868 134.043V133.401C519.828 133.434 519.759 133.464 519.662 133.493C519.568 133.521 519.461 133.546 519.343 133.567C519.224 133.589 519.107 133.608 518.991 133.624C518.875 133.641 518.774 133.655 518.689 133.667C518.497 133.693 518.326 133.736 518.174 133.795C518.023 133.854 517.903 133.937 517.816 134.043C517.728 134.147 517.684 134.282 517.684 134.448C517.684 134.685 517.771 134.864 517.943 134.984C518.116 135.105 518.336 135.165 518.604 135.165Z" fill="black"/>
<path d="M318.888 547.941C318.854 547.631 318.715 547.39 318.468 547.217C318.225 547.044 317.907 546.958 317.517 546.958C317.242 546.958 317.007 546.999 316.81 547.082C316.614 547.165 316.463 547.277 316.359 547.419C316.255 547.561 316.202 547.724 316.199 547.906C316.199 548.057 316.234 548.189 316.302 548.3C316.373 548.411 316.469 548.506 316.59 548.584C316.711 548.66 316.844 548.724 316.991 548.776C317.138 548.828 317.286 548.872 317.435 548.907L318.117 549.078C318.392 549.142 318.656 549.228 318.909 549.337C319.165 549.446 319.393 549.583 319.594 549.749C319.798 549.915 319.959 550.115 320.077 550.349C320.196 550.583 320.255 550.858 320.255 551.173C320.255 551.599 320.146 551.974 319.928 552.299C319.71 552.621 319.395 552.873 318.983 553.055C318.574 553.235 318.078 553.325 317.495 553.325C316.93 553.325 316.438 553.237 316.022 553.062C315.607 552.887 315.283 552.631 315.049 552.295C314.817 551.959 314.691 551.549 314.672 551.066H315.968C315.987 551.32 316.066 551.53 316.203 551.699C316.34 551.867 316.519 551.992 316.739 552.075C316.962 552.158 317.21 552.199 317.485 552.199C317.771 552.199 318.022 552.157 318.238 552.071C318.455 551.984 318.626 551.863 318.749 551.709C318.872 551.553 318.935 551.371 318.937 551.162C318.935 550.973 318.879 550.817 318.77 550.694C318.661 550.568 318.509 550.464 318.312 550.381C318.118 550.296 317.891 550.22 317.63 550.154L316.803 549.941C316.204 549.787 315.731 549.554 315.383 549.241C315.037 548.926 314.864 548.508 314.864 547.988C314.864 547.559 314.98 547.184 315.212 546.862C315.446 546.54 315.765 546.29 316.167 546.113C316.57 545.933 317.026 545.843 317.535 545.843C318.051 545.843 318.503 545.933 318.891 546.113C319.282 546.29 319.588 546.538 319.811 546.855C320.033 547.17 320.148 547.532 320.155 547.941H318.888ZM324.096 547.76V548.755H320.96V547.76H324.096ZM321.735 546.453H323.02V551.574C323.02 551.747 323.046 551.88 323.098 551.972C323.153 552.062 323.224 552.123 323.311 552.157C323.399 552.19 323.496 552.206 323.603 552.206C323.683 552.206 323.756 552.2 323.823 552.189C323.891 552.177 323.943 552.166 323.979 552.157L324.196 553.162C324.127 553.185 324.029 553.211 323.901 553.24C323.775 553.268 323.621 553.285 323.439 553.289C323.117 553.299 322.827 553.25 322.569 553.144C322.311 553.035 322.106 552.867 321.955 552.64C321.806 552.412 321.732 552.128 321.735 551.787V546.453ZM328.648 550.921V547.76H329.933V553.215H328.687V552.245H328.63C328.507 552.551 328.305 552.801 328.023 552.995C327.743 553.189 327.399 553.286 326.989 553.286C326.632 553.286 326.316 553.207 326.041 553.048C325.769 552.887 325.556 552.654 325.402 552.348C325.248 552.041 325.171 551.669 325.171 551.233V547.76H326.457V551.034C326.457 551.38 326.551 551.655 326.741 551.858C326.93 552.062 327.179 552.164 327.487 552.164C327.676 552.164 327.859 552.118 328.037 552.025C328.215 551.933 328.36 551.796 328.474 551.613C328.59 551.429 328.648 551.198 328.648 550.921ZM333.279 553.311C332.851 553.311 332.467 553.201 332.129 552.98C331.79 552.76 331.523 552.441 331.326 552.022C331.13 551.603 331.032 551.094 331.032 550.495C331.032 549.889 331.131 549.377 331.33 548.961C331.531 548.542 331.802 548.225 332.143 548.012C332.484 547.797 332.864 547.689 333.283 547.689C333.603 547.689 333.865 547.744 334.071 547.853C334.277 547.959 334.441 548.088 334.561 548.24C334.682 548.389 334.776 548.53 334.842 548.662H334.895V545.942H336.184V553.215H334.92V552.355H334.842C334.776 552.488 334.68 552.629 334.554 552.778C334.429 552.925 334.263 553.05 334.057 553.154C333.851 553.259 333.592 553.311 333.279 553.311ZM333.638 552.256C333.91 552.256 334.142 552.183 334.334 552.036C334.526 551.887 334.671 551.68 334.771 551.414C334.87 551.149 334.92 550.84 334.92 550.488C334.92 550.135 334.87 549.828 334.771 549.568C334.674 549.307 334.529 549.105 334.338 548.961C334.148 548.816 333.915 548.744 333.638 548.744C333.352 548.744 333.112 548.819 332.921 548.968C332.729 549.117 332.585 549.323 332.487 549.586C332.39 549.848 332.342 550.149 332.342 550.488C332.342 550.828 332.39 551.133 332.487 551.4C332.587 551.665 332.733 551.875 332.924 552.029C333.118 552.18 333.356 552.256 333.638 552.256ZM338.353 555.26C338.178 555.26 338.016 555.246 337.867 555.218C337.72 555.192 337.603 555.161 337.515 555.125L337.813 554.124C338 554.178 338.167 554.204 338.314 554.202C338.461 554.2 338.59 554.154 338.701 554.064C338.815 553.976 338.911 553.829 338.989 553.623L339.099 553.328L337.121 547.76H338.484L339.742 551.88H339.798L341.059 547.76H342.426L340.242 553.875C340.14 554.164 340.006 554.412 339.837 554.618C339.669 554.826 339.463 554.984 339.22 555.093C338.978 555.205 338.689 555.26 338.353 555.26ZM346.787 553.215H345.381L347.941 545.942H349.568L352.131 553.215H350.725L348.783 547.434H348.726L346.787 553.215ZM346.833 550.363H350.668V551.422H346.833V550.363ZM353.033 553.215V547.76H354.279V548.669H354.336C354.435 548.355 354.606 548.112 354.847 547.941C355.091 547.769 355.369 547.682 355.682 547.682C355.753 547.682 355.832 547.686 355.92 547.693C356.01 547.698 356.084 547.706 356.143 547.718V548.9C356.089 548.881 356.003 548.865 355.884 548.85C355.768 548.834 355.656 548.826 355.547 548.826C355.312 548.826 355.102 548.877 354.915 548.978C354.73 549.078 354.584 549.216 354.478 549.394C354.371 549.571 354.318 549.776 354.318 550.008V553.215H353.033ZM359.188 553.321C358.641 553.321 358.168 553.208 357.771 552.98C357.375 552.751 357.071 552.426 356.858 552.007C356.645 551.586 356.538 551.09 356.538 550.52C356.538 549.958 356.645 549.466 356.858 549.042C357.073 548.616 357.374 548.285 357.76 548.048C358.146 547.809 358.599 547.689 359.12 547.689C359.456 547.689 359.774 547.744 360.072 547.853C360.372 547.959 360.638 548.125 360.867 548.35C361.099 548.575 361.282 548.861 361.414 549.209C361.547 549.555 361.613 549.967 361.613 550.445V550.839H357.142V549.973H360.381C360.378 549.726 360.325 549.507 360.221 549.316C360.117 549.122 359.971 548.969 359.784 548.858C359.6 548.746 359.384 548.691 359.138 548.691C358.875 548.691 358.644 548.755 358.445 548.882C358.247 549.008 358.091 549.174 357.98 549.38C357.871 549.583 357.816 549.807 357.813 550.051V550.807C357.813 551.124 357.871 551.397 357.987 551.624C358.103 551.849 358.265 552.022 358.474 552.142C358.682 552.261 358.926 552.32 359.205 552.32C359.392 552.32 359.562 552.294 359.713 552.242C359.865 552.187 359.996 552.108 360.107 552.004C360.219 551.9 360.303 551.771 360.359 551.617L361.56 551.752C361.484 552.069 361.34 552.346 361.127 552.583C360.916 552.817 360.646 552.999 360.317 553.13C359.988 553.257 359.611 553.321 359.188 553.321ZM364.27 553.325C363.925 553.325 363.613 553.263 363.336 553.14C363.062 553.015 362.844 552.83 362.683 552.586C362.524 552.342 362.445 552.042 362.445 551.684C362.445 551.377 362.502 551.122 362.615 550.921C362.729 550.72 362.884 550.559 363.081 550.438C363.277 550.317 363.498 550.226 363.745 550.164C363.993 550.1 364.25 550.054 364.515 550.026C364.835 549.993 365.094 549.963 365.293 549.937C365.492 549.909 365.636 549.866 365.726 549.809C365.818 549.75 365.865 549.659 365.865 549.536V549.515C365.865 549.247 365.785 549.04 365.627 548.893C365.468 548.746 365.24 548.673 364.941 548.673C364.626 548.673 364.377 548.742 364.192 548.879C364.01 549.016 363.887 549.178 363.823 549.365L362.622 549.195C362.717 548.864 362.873 548.587 363.091 548.364C363.309 548.139 363.575 547.971 363.89 547.86C364.205 547.746 364.553 547.689 364.934 547.689C365.197 547.689 365.459 547.72 365.719 547.782C365.979 547.843 366.217 547.945 366.433 548.087C366.648 548.227 366.821 548.417 366.951 548.659C367.084 548.9 367.15 549.202 367.15 549.564V553.215H365.914V552.466H365.872C365.794 552.617 365.684 552.759 365.541 552.892C365.402 553.022 365.225 553.127 365.012 553.208C364.802 553.286 364.554 553.325 364.27 553.325ZM364.604 552.38C364.862 552.38 365.086 552.329 365.275 552.228C365.465 552.123 365.61 551.986 365.712 551.816C365.816 551.645 365.868 551.459 365.868 551.258V550.615C365.828 550.649 365.759 550.679 365.662 550.708C365.568 550.736 365.461 550.761 365.343 550.782C365.224 550.804 365.107 550.823 364.991 550.839C364.875 550.856 364.774 550.87 364.689 550.882C364.497 550.908 364.326 550.95 364.174 551.01C364.023 551.069 363.903 551.152 363.816 551.258C363.728 551.362 363.684 551.497 363.684 551.663C363.684 551.9 363.771 552.078 363.943 552.199C364.116 552.32 364.336 552.38 364.604 552.38Z" fill="black"/>
<path d="M317.832 704.941C317.799 704.631 317.659 704.39 317.413 704.217C317.169 704.044 316.852 703.958 316.461 703.958C316.186 703.958 315.951 703.999 315.754 704.082C315.558 704.165 315.408 704.277 315.303 704.419C315.199 704.561 315.146 704.724 315.144 704.906C315.144 705.057 315.178 705.189 315.247 705.3C315.318 705.411 315.414 705.506 315.534 705.584C315.655 705.66 315.789 705.724 315.936 705.776C316.082 705.828 316.23 705.872 316.379 705.907L317.061 706.078C317.336 706.142 317.6 706.228 317.853 706.337C318.109 706.446 318.337 706.583 318.539 706.749C318.742 706.915 318.903 707.115 319.021 707.349C319.14 707.583 319.199 707.858 319.199 708.173C319.199 708.599 319.09 708.974 318.872 709.299C318.655 709.621 318.34 709.873 317.928 710.055C317.518 710.235 317.022 710.325 316.44 710.325C315.874 710.325 315.383 710.237 314.966 710.062C314.552 709.887 314.227 709.631 313.993 709.295C313.761 708.959 313.636 708.549 313.617 708.066H314.913C314.932 708.32 315.01 708.53 315.147 708.699C315.285 708.867 315.463 708.992 315.683 709.075C315.906 709.158 316.155 709.199 316.429 709.199C316.716 709.199 316.967 709.157 317.182 709.071C317.4 708.984 317.57 708.863 317.693 708.709C317.816 708.553 317.879 708.371 317.882 708.162C317.879 707.973 317.824 707.817 317.715 707.694C317.606 707.568 317.453 707.464 317.257 707.381C317.062 707.296 316.835 707.22 316.575 707.154L315.747 706.941C315.148 706.787 314.675 706.554 314.327 706.241C313.981 705.926 313.808 705.508 313.808 704.988C313.808 704.559 313.924 704.184 314.156 703.862C314.391 703.54 314.709 703.29 315.112 703.113C315.514 702.933 315.97 702.843 316.479 702.843C316.995 702.843 317.447 702.933 317.835 703.113C318.226 703.29 318.533 703.538 318.755 703.855C318.978 704.17 319.093 704.532 319.1 704.941H317.832ZM323.04 704.76V705.755H319.905V704.76H323.04ZM320.679 703.453H321.964V708.574C321.964 708.747 321.991 708.88 322.043 708.972C322.097 709.062 322.168 709.123 322.256 709.157C322.343 709.19 322.44 709.206 322.547 709.206C322.627 709.206 322.701 709.2 322.767 709.189C322.836 709.177 322.888 709.166 322.923 709.157L323.14 710.162C323.071 710.185 322.973 710.211 322.845 710.24C322.72 710.268 322.566 710.285 322.384 710.289C322.062 710.299 321.772 710.25 321.513 710.144C321.255 710.035 321.051 709.867 320.899 709.64C320.75 709.412 320.677 709.128 320.679 708.787V703.453ZM327.592 707.921V704.76H328.878V710.215H327.631V709.245H327.574C327.451 709.551 327.249 709.801 326.967 709.995C326.688 710.189 326.343 710.286 325.934 710.286C325.576 710.286 325.26 710.207 324.986 710.048C324.713 709.887 324.5 709.654 324.346 709.348C324.193 709.041 324.116 708.669 324.116 708.233V704.76H325.401V708.034C325.401 708.38 325.496 708.655 325.685 708.858C325.875 709.062 326.123 709.164 326.431 709.164C326.62 709.164 326.804 709.118 326.981 709.025C327.159 708.933 327.305 708.796 327.418 708.613C327.534 708.429 327.592 708.198 327.592 707.921ZM332.224 710.311C331.795 710.311 331.412 710.201 331.073 709.98C330.735 709.76 330.467 709.441 330.271 709.022C330.074 708.603 329.976 708.094 329.976 707.495C329.976 706.889 330.075 706.377 330.274 705.961C330.475 705.542 330.746 705.225 331.087 705.012C331.428 704.797 331.808 704.689 332.227 704.689C332.547 704.689 332.81 704.744 333.016 704.853C333.222 704.959 333.385 705.088 333.506 705.24C333.626 705.389 333.72 705.53 333.786 705.662H333.839V702.942H335.129V710.215H333.864V709.355H333.786C333.72 709.488 333.624 709.629 333.499 709.778C333.373 709.925 333.207 710.05 333.001 710.154C332.795 710.259 332.536 710.311 332.224 710.311ZM332.582 709.256C332.855 709.256 333.087 709.183 333.278 709.036C333.47 708.887 333.616 708.68 333.715 708.414C333.815 708.149 333.864 707.84 333.864 707.488C333.864 707.135 333.815 706.828 333.715 706.568C333.618 706.307 333.474 706.105 333.282 705.961C333.093 705.816 332.859 705.744 332.582 705.744C332.296 705.744 332.057 705.819 331.865 705.968C331.673 706.117 331.529 706.323 331.432 706.586C331.335 706.848 331.286 707.149 331.286 707.488C331.286 707.828 331.335 708.133 331.432 708.4C331.531 708.665 331.677 708.875 331.869 709.029C332.063 709.18 332.301 709.256 332.582 709.256ZM337.297 712.26C337.122 712.26 336.96 712.246 336.811 712.218C336.664 712.192 336.547 712.161 336.459 712.125L336.758 711.124C336.945 711.178 337.112 711.204 337.258 711.202C337.405 711.2 337.534 711.154 337.645 711.064C337.759 710.976 337.855 710.829 337.933 710.623L338.043 710.328L336.065 704.76H337.429L338.686 708.88H338.743L340.003 704.76H341.371L339.187 710.875C339.085 711.164 338.95 711.412 338.782 711.618C338.614 711.826 338.408 711.984 338.164 712.093C337.922 712.205 337.634 712.26 337.297 712.26ZM345.731 710.215H344.325L346.885 702.942H348.512L351.076 710.215H349.67L347.727 704.434H347.67L345.731 710.215ZM345.778 707.363H349.613V708.422H345.778V707.363ZM351.977 710.215V704.76H353.223V705.669H353.28C353.38 705.355 353.55 705.112 353.792 704.941C354.035 704.769 354.314 704.682 354.626 704.682C354.697 704.682 354.776 704.686 354.864 704.693C354.954 704.698 355.029 704.706 355.088 704.718V705.9C355.033 705.881 354.947 705.865 354.828 705.85C354.712 705.834 354.6 705.826 354.491 705.826C354.257 705.826 354.046 705.877 353.859 705.978C353.674 706.078 353.529 706.216 353.422 706.394C353.316 706.571 353.262 706.776 353.262 707.008V710.215H351.977ZM358.132 710.321C357.585 710.321 357.113 710.208 356.715 709.98C356.32 709.751 356.015 709.426 355.802 709.007C355.589 708.586 355.483 708.09 355.483 707.52C355.483 706.958 355.589 706.466 355.802 706.042C356.018 705.616 356.318 705.285 356.704 705.048C357.09 704.809 357.544 704.689 358.064 704.689C358.401 704.689 358.718 704.744 359.016 704.853C359.317 704.959 359.582 705.125 359.812 705.35C360.044 705.575 360.226 705.861 360.358 706.209C360.491 706.555 360.557 706.967 360.557 707.445V707.839H356.086V706.973H359.325C359.323 706.726 359.269 706.507 359.165 706.316C359.061 706.122 358.916 705.969 358.729 705.858C358.544 705.746 358.328 705.691 358.082 705.691C357.819 705.691 357.589 705.755 357.39 705.882C357.191 706.008 357.036 706.174 356.925 706.38C356.816 706.583 356.76 706.807 356.758 707.051V707.807C356.758 708.124 356.816 708.397 356.932 708.624C357.048 708.849 357.21 709.022 357.418 709.142C357.626 709.261 357.87 709.32 358.15 709.32C358.337 709.32 358.506 709.294 358.657 709.242C358.809 709.187 358.94 709.108 359.052 709.004C359.163 708.9 359.247 708.771 359.304 708.617L360.504 708.752C360.428 709.069 360.284 709.346 360.071 709.583C359.86 709.817 359.59 709.999 359.261 710.13C358.932 710.257 358.556 710.321 358.132 710.321ZM363.214 710.325C362.869 710.325 362.558 710.263 362.281 710.14C362.006 710.015 361.788 709.83 361.627 709.586C361.469 709.342 361.389 709.042 361.389 708.684C361.389 708.377 361.446 708.122 361.56 707.921C361.673 707.72 361.828 707.559 362.025 707.438C362.221 707.317 362.443 707.226 362.689 707.164C362.938 707.1 363.194 707.054 363.46 707.026C363.779 706.993 364.038 706.963 364.237 706.937C364.436 706.909 364.58 706.866 364.67 706.809C364.763 706.75 364.809 706.659 364.809 706.536V706.515C364.809 706.247 364.73 706.04 364.571 705.893C364.412 705.746 364.184 705.673 363.886 705.673C363.571 705.673 363.321 705.742 363.136 705.879C362.954 706.016 362.831 706.178 362.767 706.365L361.567 706.195C361.661 705.864 361.818 705.587 362.036 705.364C362.253 705.139 362.52 704.971 362.835 704.86C363.149 704.746 363.497 704.689 363.879 704.689C364.141 704.689 364.403 704.72 364.663 704.782C364.924 704.843 365.162 704.945 365.377 705.087C365.593 705.227 365.765 705.417 365.896 705.659C366.028 705.9 366.094 706.202 366.094 706.564V710.215H364.859V709.466H364.816C364.738 709.617 364.628 709.759 364.486 709.892C364.346 710.022 364.17 710.127 363.957 710.208C363.746 710.286 363.499 710.325 363.214 710.325ZM363.548 709.38C363.806 709.38 364.03 709.329 364.219 709.228C364.409 709.123 364.554 708.986 364.656 708.816C364.76 708.645 364.812 708.459 364.812 708.258V707.615C364.772 707.649 364.704 707.679 364.607 707.708C364.512 707.736 364.405 707.761 364.287 707.782C364.169 707.804 364.051 707.823 363.935 707.839C363.819 707.856 363.719 707.87 363.634 707.882C363.442 707.908 363.27 707.95 363.119 708.01C362.967 708.069 362.848 708.152 362.76 708.258C362.672 708.362 362.629 708.497 362.629 708.663C362.629 708.9 362.715 709.078 362.888 709.199C363.061 709.32 363.281 709.38 363.548 709.38ZM372.041 710.321C371.544 710.321 371.116 710.231 370.759 710.051C370.401 709.872 370.126 709.629 369.931 709.324C369.74 709.016 369.644 708.669 369.644 708.283C369.644 707.992 369.703 707.734 369.821 707.509C369.942 707.284 370.108 707.076 370.319 706.884C370.532 706.692 370.778 706.502 371.057 706.312L372.346 705.435C372.536 705.312 372.679 705.182 372.776 705.044C372.875 704.907 372.925 704.746 372.925 704.561C372.925 704.405 372.859 704.257 372.726 704.118C372.596 703.978 372.416 703.908 372.186 703.908C372.033 703.908 371.896 703.945 371.778 704.018C371.662 704.089 371.571 704.183 371.505 704.299C371.441 704.415 371.409 704.538 371.409 704.668C371.409 704.827 371.453 704.988 371.54 705.151C371.63 705.314 371.746 705.484 371.888 705.659C372.033 705.834 372.186 706.02 372.35 706.216L375.762 710.215H374.37L371.537 706.969C371.326 706.723 371.122 706.48 370.926 706.241C370.732 706.002 370.572 705.753 370.446 705.495C370.323 705.235 370.262 704.953 370.262 704.65C370.262 704.307 370.341 704 370.5 703.73C370.658 703.458 370.88 703.244 371.164 703.088C371.45 702.931 371.785 702.853 372.169 702.853C372.552 702.853 372.881 702.929 373.156 703.081C373.431 703.232 373.642 703.433 373.792 703.684C373.941 703.935 374.015 704.209 374.015 704.505C374.015 704.848 373.93 705.156 373.76 705.428C373.589 705.698 373.352 705.943 373.049 706.163L371.579 707.239C371.338 707.414 371.165 707.592 371.061 707.772C370.957 707.949 370.904 708.101 370.904 708.226C370.904 708.418 370.953 708.592 371.05 708.748C371.147 708.904 371.283 709.03 371.458 709.125C371.636 709.217 371.843 709.263 372.08 709.263C372.34 709.263 372.597 709.205 372.85 709.089C373.104 708.971 373.335 708.803 373.543 708.585C373.751 708.367 373.917 708.107 374.04 707.804C374.163 707.498 374.225 707.16 374.225 706.788H375.329C375.329 707.247 375.278 707.647 375.176 707.988C375.075 708.327 374.943 708.613 374.782 708.848C374.621 709.08 374.451 709.266 374.271 709.405C374.214 709.445 374.16 709.486 374.108 709.526C374.056 709.566 374.001 709.606 373.944 709.647C373.689 709.879 373.389 710.049 373.046 710.158C372.705 710.267 372.37 710.321 372.041 710.321ZM303.127 724.942H304.74L306.899 730.212H306.984L309.143 724.942H310.755V732.215H309.491V727.218H309.424L307.414 732.194H306.469L304.459 727.208H304.392V732.215H303.127V724.942ZM314.548 732.321C314.001 732.321 313.529 732.208 313.131 731.98C312.736 731.751 312.431 731.426 312.218 731.007C312.005 730.586 311.899 730.09 311.899 729.52C311.899 728.958 312.005 728.466 312.218 728.042C312.434 727.616 312.734 727.285 313.12 727.048C313.506 726.809 313.96 726.689 314.48 726.689C314.817 726.689 315.134 726.744 315.432 726.853C315.733 726.959 315.998 727.125 316.228 727.35C316.46 727.575 316.642 727.861 316.775 728.209C316.907 728.555 316.973 728.967 316.973 729.445V729.839H312.502V728.973H315.741C315.739 728.726 315.685 728.507 315.581 728.316C315.477 728.122 315.332 727.969 315.145 727.858C314.96 727.746 314.744 727.691 314.498 727.691C314.235 727.691 314.005 727.755 313.806 727.882C313.607 728.008 313.452 728.174 313.341 728.38C313.232 728.583 313.176 728.807 313.174 729.051V729.807C313.174 730.124 313.232 730.397 313.348 730.624C313.464 730.849 313.626 731.022 313.834 731.142C314.042 731.261 314.286 731.32 314.566 731.32C314.753 731.32 314.922 731.294 315.074 731.242C315.225 731.187 315.356 731.108 315.468 731.004C315.579 730.9 315.663 730.771 315.72 730.617L316.92 730.752C316.844 731.069 316.7 731.346 316.487 731.583C316.276 731.817 316.006 731.999 315.677 732.13C315.348 732.257 314.972 732.321 314.548 732.321ZM320.085 732.311C319.657 732.311 319.273 732.201 318.934 731.98C318.596 731.76 318.328 731.441 318.132 731.022C317.935 730.603 317.837 730.094 317.837 729.495C317.837 728.889 317.937 728.377 318.135 727.961C318.337 727.542 318.608 727.225 318.949 727.012C319.29 726.797 319.67 726.689 320.089 726.689C320.408 726.689 320.671 726.744 320.877 726.853C321.083 726.959 321.246 727.088 321.367 727.24C321.488 727.389 321.581 727.53 321.648 727.662H321.701V724.942H322.99V732.215H321.726V731.355H321.648C321.581 731.488 321.485 731.629 321.36 731.778C321.234 731.925 321.069 732.05 320.863 732.154C320.657 732.259 320.398 732.311 320.085 732.311ZM320.444 731.256C320.716 731.256 320.948 731.183 321.14 731.036C321.331 730.887 321.477 730.68 321.577 730.414C321.676 730.149 321.726 729.84 321.726 729.488C321.726 729.135 321.676 728.828 321.577 728.568C321.479 728.307 321.335 728.105 321.143 727.961C320.954 727.816 320.721 727.744 320.444 727.744C320.157 727.744 319.918 727.819 319.726 727.968C319.535 728.117 319.39 728.323 319.293 728.586C319.196 728.848 319.148 729.149 319.148 729.488C319.148 729.828 319.196 730.133 319.293 730.4C319.393 730.665 319.538 730.875 319.73 731.029C319.924 731.18 320.162 731.256 320.444 731.256ZM324.36 732.215V726.76H325.645V732.215H324.36ZM325.006 725.986C324.802 725.986 324.627 725.919 324.48 725.784C324.334 725.646 324.26 725.482 324.26 725.29C324.26 725.096 324.334 724.931 324.48 724.797C324.627 724.659 324.802 724.591 325.006 724.591C325.212 724.591 325.387 724.659 325.532 724.797C325.678 724.931 325.752 725.096 325.752 725.29C325.752 725.482 325.678 725.646 325.532 725.784C325.387 725.919 325.212 725.986 325.006 725.986ZM328.537 732.325C328.191 732.325 327.88 732.263 327.603 732.14C327.328 732.015 327.11 731.83 326.949 731.586C326.791 731.342 326.711 731.042 326.711 730.684C326.711 730.377 326.768 730.122 326.882 729.921C326.996 729.72 327.151 729.559 327.347 729.438C327.544 729.317 327.765 729.226 328.011 729.164C328.26 729.1 328.517 729.054 328.782 729.026C329.101 728.993 329.361 728.963 329.559 728.937C329.758 728.909 329.903 728.866 329.993 728.809C330.085 728.75 330.131 728.659 330.131 728.536V728.515C330.131 728.247 330.052 728.04 329.893 727.893C329.735 727.746 329.506 727.673 329.208 727.673C328.893 727.673 328.643 727.742 328.459 727.879C328.276 728.016 328.153 728.178 328.089 728.365L326.889 728.195C326.984 727.864 327.14 727.587 327.358 727.364C327.576 727.139 327.842 726.971 328.157 726.86C328.472 726.746 328.82 726.689 329.201 726.689C329.464 726.689 329.725 726.72 329.986 726.782C330.246 726.843 330.484 726.945 330.699 727.087C330.915 727.227 331.088 727.417 331.218 727.659C331.35 727.9 331.417 728.202 331.417 728.564V732.215H330.181V731.466H330.138C330.06 731.617 329.95 731.759 329.808 731.892C329.668 732.022 329.492 732.127 329.279 732.208C329.068 732.286 328.821 732.325 328.537 732.325ZM328.871 731.38C329.129 731.38 329.352 731.329 329.542 731.228C329.731 731.123 329.877 730.986 329.979 730.816C330.083 730.645 330.135 730.459 330.135 730.258V729.615C330.095 729.649 330.026 729.679 329.929 729.708C329.834 729.736 329.728 729.761 329.609 729.782C329.491 729.804 329.374 729.823 329.258 729.839C329.142 729.856 329.041 729.87 328.956 729.882C328.764 729.908 328.592 729.95 328.441 730.01C328.289 730.069 328.17 730.152 328.082 730.258C327.995 730.362 327.951 730.497 327.951 730.663C327.951 730.9 328.037 731.078 328.21 731.199C328.383 731.32 328.603 731.38 328.871 731.38ZM335.247 732.215V724.942H339.977V726.047H336.564V728.021H339.732V729.125H336.564V731.11H340.005V732.215H335.247ZM344.904 734.26V731.355H344.851C344.784 731.488 344.689 731.629 344.563 731.778C344.438 731.925 344.272 732.05 344.066 732.154C343.86 732.259 343.601 732.311 343.288 732.311C342.86 732.311 342.476 732.201 342.138 731.98C341.799 731.76 341.532 731.441 341.335 731.022C341.139 730.603 341.04 730.094 341.04 729.495C341.04 728.889 341.14 728.377 341.339 727.961C341.54 727.542 341.811 727.225 342.152 727.012C342.493 726.797 342.873 726.689 343.292 726.689C343.611 726.689 343.874 726.744 344.08 726.853C344.286 726.959 344.449 727.088 344.57 727.24C344.691 727.389 344.784 727.53 344.851 727.662H344.929V726.76H346.193V734.26H344.904ZM343.647 731.256C343.919 731.256 344.151 731.183 344.343 731.036C344.535 730.887 344.68 730.68 344.78 730.414C344.879 730.149 344.929 729.84 344.929 729.488C344.929 729.135 344.879 728.828 344.78 728.568C344.683 728.307 344.538 728.105 344.346 727.961C344.157 727.816 343.924 727.744 343.647 727.744C343.36 727.744 343.121 727.819 342.93 727.968C342.738 728.117 342.593 728.323 342.496 728.586C342.399 728.848 342.351 729.149 342.351 729.488C342.351 729.828 342.399 730.133 342.496 730.4C342.596 730.665 342.741 730.875 342.933 731.029C343.127 731.18 343.365 731.256 343.647 731.256ZM350.991 729.921V726.76H352.276V732.215H351.03V731.245H350.973C350.85 731.551 350.647 731.801 350.366 731.995C350.086 732.189 349.742 732.286 349.332 732.286C348.975 732.286 348.659 732.207 348.384 732.048C348.112 731.887 347.899 731.654 347.745 731.348C347.591 731.041 347.514 730.669 347.514 730.233V726.76H348.8V730.034C348.8 730.38 348.894 730.655 349.084 730.858C349.273 731.062 349.522 731.164 349.829 731.164C350.019 731.164 350.202 731.118 350.38 731.025C350.557 730.933 350.703 730.796 350.817 730.613C350.933 730.429 350.991 730.198 350.991 729.921ZM353.598 732.215V726.76H354.884V732.215H353.598ZM354.244 725.986C354.041 725.986 353.866 725.919 353.719 725.784C353.572 725.646 353.499 725.482 353.499 725.29C353.499 725.096 353.572 724.931 353.719 724.797C353.866 724.659 354.041 724.591 354.244 724.591C354.45 724.591 354.625 724.659 354.77 724.797C354.917 724.931 354.99 725.096 354.99 725.29C354.99 725.482 354.917 725.646 354.77 725.784C354.625 725.919 354.45 725.986 354.244 725.986ZM356.205 734.26V726.76H357.47V727.662H357.544C357.61 727.53 357.704 727.389 357.825 727.24C357.945 727.088 358.109 726.959 358.315 726.853C358.521 726.744 358.784 726.689 359.103 726.689C359.525 726.689 359.905 726.797 360.243 727.012C360.584 727.225 360.854 727.542 361.053 727.961C361.254 728.377 361.355 728.889 361.355 729.495C361.355 730.094 361.256 730.603 361.06 731.022C360.863 731.441 360.596 731.76 360.257 731.98C359.919 732.201 359.535 732.311 359.107 732.311C358.794 732.311 358.535 732.259 358.329 732.154C358.123 732.05 357.957 731.925 357.832 731.778C357.709 731.629 357.613 731.488 357.544 731.355H357.491V734.26H356.205ZM357.466 729.488C357.466 729.84 357.516 730.149 357.615 730.414C357.717 730.68 357.863 730.887 358.052 731.036C358.244 731.183 358.476 731.256 358.748 731.256C359.032 731.256 359.27 731.18 359.462 731.029C359.654 730.875 359.798 730.665 359.895 730.4C359.994 730.133 360.044 729.828 360.044 729.488C360.044 729.149 359.996 728.848 359.899 728.586C359.802 728.323 359.657 728.117 359.465 727.968C359.274 727.819 359.035 727.744 358.748 727.744C358.473 727.744 358.24 727.816 358.048 727.961C357.857 728.105 357.711 728.307 357.612 728.568C357.515 728.828 357.466 729.135 357.466 729.488ZM362.455 732.215V726.76H363.684V727.687H363.748C363.862 727.375 364.05 727.131 364.313 726.956C364.575 726.778 364.889 726.689 365.254 726.689C365.623 726.689 365.934 726.779 366.188 726.959C366.443 727.137 366.623 727.379 366.727 727.687H366.784C366.905 727.384 367.109 727.143 367.395 726.963C367.684 726.78 368.026 726.689 368.421 726.689C368.923 726.689 369.333 726.848 369.65 727.165C369.967 727.482 370.126 727.945 370.126 728.554V732.215H368.837V728.752C368.837 728.414 368.747 728.167 368.567 728.01C368.387 727.852 368.167 727.772 367.906 727.772C367.596 727.772 367.354 727.869 367.178 728.064C367.006 728.255 366.919 728.505 366.919 728.813V732.215H365.659V728.699C365.659 728.417 365.573 728.193 365.403 728.025C365.235 727.856 365.015 727.772 364.742 727.772C364.558 727.772 364.39 727.82 364.238 727.914C364.087 728.007 363.966 728.138 363.876 728.309C363.786 728.477 363.741 728.673 363.741 728.898V732.215H362.455ZM373.845 732.321C373.298 732.321 372.826 732.208 372.428 731.98C372.033 731.751 371.728 731.426 371.515 731.007C371.302 730.586 371.196 730.09 371.196 729.52C371.196 728.958 371.302 728.466 371.515 728.042C371.731 727.616 372.031 727.285 372.417 727.048C372.803 726.809 373.257 726.689 373.777 726.689C374.114 726.689 374.431 726.744 374.729 726.853C375.03 726.959 375.295 727.125 375.525 727.35C375.757 727.575 375.939 727.861 376.071 728.209C376.204 728.555 376.27 728.967 376.27 729.445V729.839H371.799V728.973H375.038C375.036 728.726 374.982 728.507 374.878 728.316C374.774 728.122 374.628 727.969 374.441 727.858C374.257 727.746 374.041 727.691 373.795 727.691C373.532 727.691 373.301 727.755 373.103 727.882C372.904 728.008 372.749 728.174 372.637 728.38C372.529 728.583 372.473 728.807 372.471 729.051V729.807C372.471 730.124 372.529 730.397 372.645 730.624C372.761 730.849 372.923 731.022 373.131 731.142C373.339 731.261 373.583 731.32 373.863 731.32C374.05 731.32 374.219 731.294 374.37 731.242C374.522 731.187 374.653 731.108 374.765 731.004C374.876 730.9 374.96 730.771 375.017 730.617L376.217 730.752C376.141 731.069 375.997 731.346 375.784 731.583C375.573 731.817 375.303 731.999 374.974 732.13C374.645 732.257 374.269 732.321 373.845 732.321ZM378.643 729.019V732.215H377.358V726.76H378.586V727.687H378.65C378.776 727.382 378.976 727.139 379.251 726.959C379.528 726.779 379.87 726.689 380.277 726.689C380.653 726.689 380.981 726.77 381.26 726.931C381.542 727.092 381.76 727.325 381.914 727.63C382.07 727.936 382.147 728.306 382.145 728.742V732.215H380.859V728.941C380.859 728.576 380.765 728.291 380.575 728.085C380.388 727.879 380.129 727.776 379.797 727.776C379.573 727.776 379.372 727.826 379.197 727.925C379.024 728.022 378.888 728.163 378.789 728.348C378.692 728.532 378.643 728.756 378.643 729.019ZM386.175 726.76V727.755H383.04V726.76H386.175ZM383.814 725.453H385.099V730.574C385.099 730.747 385.125 730.88 385.177 730.972C385.232 731.062 385.303 731.123 385.39 731.157C385.478 731.19 385.575 731.206 385.682 731.206C385.762 731.206 385.836 731.2 385.902 731.189C385.97 731.177 386.023 731.166 386.058 731.157L386.275 732.162C386.206 732.185 386.108 732.211 385.98 732.24C385.854 732.268 385.701 732.285 385.518 732.289C385.196 732.299 384.906 732.25 384.648 732.144C384.39 732.035 384.185 731.867 384.034 731.64C383.885 731.412 383.811 731.128 383.814 730.787V725.453Z" fill="black"/>
<path d="M318.402 17.7266C318.369 17.4164 318.229 17.175 317.983 17.0021C317.739 16.8293 317.422 16.7429 317.031 16.7429C316.757 16.7429 316.521 16.7843 316.325 16.8672C316.128 16.95 315.978 17.0625 315.874 17.2045C315.77 17.3466 315.716 17.5088 315.714 17.6911C315.714 17.8426 315.748 17.974 315.817 18.0852C315.888 18.1965 315.984 18.2912 316.105 18.3693C316.225 18.4451 316.359 18.509 316.506 18.5611C316.653 18.6132 316.801 18.657 316.95 18.6925L317.632 18.8629C317.906 18.9268 318.17 19.0133 318.423 19.1222C318.679 19.2311 318.908 19.3684 319.109 19.5341C319.312 19.6998 319.473 19.8999 319.592 20.1342C319.71 20.3686 319.769 20.6432 319.769 20.9581C319.769 21.3842 319.66 21.7595 319.443 22.0838C319.225 22.4058 318.91 22.6579 318.498 22.8402C318.088 23.0201 317.593 23.1101 317.01 23.1101C316.444 23.1101 315.953 23.0225 315.536 22.8473C315.122 22.6721 314.798 22.4164 314.563 22.0803C314.331 21.7441 314.206 21.3345 314.187 20.8516H315.483C315.502 21.1049 315.58 21.3156 315.718 21.4837C315.855 21.6518 316.034 21.7772 316.254 21.8601C316.476 21.9429 316.725 21.9844 316.999 21.9844C317.286 21.9844 317.537 21.9418 317.752 21.8565C317.97 21.7689 318.141 21.6482 318.264 21.4943C318.387 21.3381 318.45 21.1558 318.452 20.9474C318.45 20.758 318.394 20.6018 318.285 20.4787C318.176 20.3532 318.023 20.2491 317.827 20.1662C317.633 20.081 317.405 20.0052 317.145 19.9389L316.318 19.7259C315.719 19.572 315.245 19.3388 314.897 19.0263C314.552 18.7114 314.379 18.2936 314.379 17.7727C314.379 17.3442 314.495 16.969 314.727 16.647C314.961 16.325 315.28 16.0753 315.682 15.8977C316.084 15.7178 316.54 15.6278 317.049 15.6278C317.565 15.6278 318.017 15.7178 318.406 15.8977C318.796 16.0753 319.103 16.3227 319.325 16.6399C319.548 16.9548 319.663 17.317 319.67 17.7266H318.402ZM322.173 19.804V23H320.887V15.7273H322.144V18.4723H322.208C322.336 18.1645 322.534 17.9219 322.801 17.7443C323.071 17.5644 323.414 17.4744 323.831 17.4744C324.21 17.4744 324.54 17.5537 324.822 17.7124C325.103 17.871 325.321 18.103 325.475 18.4084C325.631 18.7138 325.71 19.0866 325.71 19.527V23H324.424V19.7259C324.424 19.3589 324.329 19.0736 324.14 18.87C323.953 18.6641 323.69 18.5611 323.352 18.5611C323.124 18.5611 322.921 18.6108 322.741 18.7102C322.563 18.8073 322.424 18.9482 322.322 19.1328C322.222 19.3175 322.173 19.5412 322.173 19.804ZM329.435 23.1065C328.888 23.1065 328.415 22.9929 328.018 22.7656C327.622 22.536 327.318 22.2116 327.105 21.7926C326.892 21.3712 326.786 20.8752 326.786 20.3047C326.786 19.7436 326.892 19.2512 327.105 18.8274C327.321 18.4013 327.621 18.0698 328.007 17.8331C328.393 17.594 328.846 17.4744 329.367 17.4744C329.703 17.4744 330.021 17.5289 330.319 17.6378C330.62 17.7443 330.885 17.91 331.114 18.1349C331.346 18.3598 331.529 18.6463 331.661 18.9943C331.794 19.34 331.86 19.7519 331.86 20.2301V20.6243H327.389V19.7578H330.628C330.625 19.5116 330.572 19.2926 330.468 19.1009C330.364 18.9067 330.218 18.754 330.031 18.6428C329.847 18.5315 329.631 18.4759 329.385 18.4759C329.122 18.4759 328.891 18.5398 328.692 18.6676C328.494 18.7931 328.339 18.9588 328.227 19.1648C328.118 19.3684 328.063 19.5921 328.06 19.8359V20.5923C328.06 20.9096 328.118 21.1818 328.234 21.4091C328.35 21.634 328.513 21.8068 328.721 21.9276C328.929 22.0459 329.173 22.1051 329.452 22.1051C329.639 22.1051 329.809 22.0791 329.96 22.027C330.112 21.9725 330.243 21.8932 330.354 21.7891C330.466 21.6849 330.55 21.5559 330.607 21.402L331.807 21.5369C331.731 21.8542 331.587 22.1312 331.374 22.3679C331.163 22.6023 330.893 22.7846 330.564 22.9148C330.235 23.0426 329.858 23.1065 329.435 23.1065ZM332.948 23V17.5455H334.194V18.4545H334.251C334.35 18.1397 334.521 17.897 334.762 17.7266C335.006 17.5537 335.284 17.4673 335.597 17.4673C335.668 17.4673 335.747 17.4709 335.835 17.478C335.925 17.4827 335.999 17.491 336.058 17.5028V18.6854C336.004 18.6664 335.918 18.6499 335.799 18.6357C335.683 18.6191 335.571 18.6108 335.462 18.6108C335.227 18.6108 335.017 18.6617 334.83 18.7635C334.645 18.8629 334.499 19.0014 334.393 19.179C334.286 19.3565 334.233 19.5613 334.233 19.7933V23H332.948ZM336.969 23V15.7273H338.255V18.4474H338.308C338.374 18.3149 338.468 18.174 338.589 18.0249C338.709 17.8733 338.873 17.7443 339.079 17.6378C339.285 17.5289 339.547 17.4744 339.867 17.4744C340.288 17.4744 340.668 17.5821 341.007 17.7976C341.348 18.0107 341.618 18.3267 341.817 18.7457C342.018 19.1624 342.118 19.6738 342.118 20.2798C342.118 20.8788 342.02 21.3878 341.824 21.8068C341.627 22.2259 341.36 22.5455 341.021 22.7656C340.683 22.9858 340.299 23.0959 339.871 23.0959C339.558 23.0959 339.299 23.0438 339.093 22.9396C338.887 22.8355 338.721 22.71 338.596 22.5632C338.473 22.4141 338.377 22.2732 338.308 22.1406H338.233V23H336.969ZM338.23 20.2727C338.23 20.6255 338.28 20.9344 338.379 21.1996C338.481 21.4647 338.626 21.6719 338.816 21.821C339.008 21.9678 339.24 22.0412 339.512 22.0412C339.796 22.0412 340.034 21.9654 340.226 21.8139C340.417 21.66 340.562 21.4505 340.659 21.1854C340.758 20.9179 340.808 20.6136 340.808 20.2727C340.808 19.9342 340.76 19.6335 340.662 19.3707C340.565 19.108 340.421 18.902 340.229 18.7528C340.037 18.6037 339.798 18.5291 339.512 18.5291C339.237 18.5291 339.004 18.6013 338.812 18.7457C338.621 18.8902 338.475 19.0926 338.376 19.353C338.278 19.6134 338.23 19.92 338.23 20.2727ZM343.211 23V17.5455H344.458V18.4545H344.515C344.614 18.1397 344.784 17.897 345.026 17.7266C345.27 17.5537 345.548 17.4673 345.86 17.4673C345.931 17.4673 346.011 17.4709 346.098 17.478C346.188 17.4827 346.263 17.491 346.322 17.5028V18.6854C346.268 18.6664 346.181 18.6499 346.063 18.6357C345.947 18.6191 345.834 18.6108 345.725 18.6108C345.491 18.6108 345.28 18.6617 345.093 18.7635C344.909 18.8629 344.763 19.0014 344.657 19.179C344.55 19.3565 344.497 19.5613 344.497 19.7933V23H343.211ZM349.331 23.1065C348.798 23.1065 348.336 22.9893 347.946 22.755C347.555 22.5206 347.252 22.1927 347.037 21.7713C346.824 21.3499 346.717 20.8575 346.717 20.294C346.717 19.7306 346.824 19.237 347.037 18.8132C347.252 18.3894 347.555 18.0604 347.946 17.826C348.336 17.5916 348.798 17.4744 349.331 17.4744C349.863 17.4744 350.325 17.5916 350.716 17.826C351.106 18.0604 351.408 18.3894 351.621 18.8132C351.837 19.237 351.944 19.7306 351.944 20.294C351.944 20.8575 351.837 21.3499 351.621 21.7713C351.408 22.1927 351.106 22.5206 350.716 22.755C350.325 22.9893 349.863 23.1065 349.331 23.1065ZM349.338 22.0767C349.627 22.0767 349.868 21.9974 350.062 21.8388C350.256 21.6778 350.401 21.4624 350.496 21.1925C350.593 20.9226 350.641 20.6219 350.641 20.2905C350.641 19.9567 350.593 19.6548 350.496 19.3849C350.401 19.1127 350.256 18.8961 350.062 18.7351C349.868 18.5741 349.627 18.4936 349.338 18.4936C349.042 18.4936 348.796 18.5741 348.599 18.7351C348.405 18.8961 348.26 19.1127 348.162 19.3849C348.068 19.6548 348.02 19.9567 348.02 20.2905C348.02 20.6219 348.068 20.9226 348.162 21.1925C348.26 21.4624 348.405 21.6778 348.599 21.8388C348.796 21.9974 349.042 22.0767 349.338 22.0767ZM355.415 23.1065C354.882 23.1065 354.42 22.9893 354.03 22.755C353.639 22.5206 353.336 22.1927 353.121 21.7713C352.908 21.3499 352.801 20.8575 352.801 20.294C352.801 19.7306 352.908 19.237 353.121 18.8132C353.336 18.3894 353.639 18.0604 354.03 17.826C354.42 17.5916 354.882 17.4744 355.415 17.4744C355.947 17.4744 356.409 17.5916 356.8 17.826C357.19 18.0604 357.492 18.3894 357.705 18.8132C357.921 19.237 358.028 19.7306 358.028 20.294C358.028 20.8575 357.921 21.3499 357.705 21.7713C357.492 22.1927 357.19 22.5206 356.8 22.755C356.409 22.9893 355.947 23.1065 355.415 23.1065ZM355.422 22.0767C355.711 22.0767 355.952 21.9974 356.146 21.8388C356.34 21.6778 356.485 21.4624 356.58 21.1925C356.677 20.9226 356.725 20.6219 356.725 20.2905C356.725 19.9567 356.677 19.6548 356.58 19.3849C356.485 19.1127 356.34 18.8961 356.146 18.7351C355.952 18.5741 355.711 18.4936 355.422 18.4936C355.126 18.4936 354.88 18.5741 354.683 18.7351C354.489 18.8961 354.344 19.1127 354.246 19.3849C354.152 19.6548 354.104 19.9567 354.104 20.2905C354.104 20.6219 354.152 20.9226 354.246 21.1925C354.344 21.4624 354.489 21.6778 354.683 21.8388C354.88 21.9974 355.126 22.0767 355.422 22.0767ZM360.291 21.2884L360.288 19.7365H360.494L362.454 17.5455H363.956L361.545 20.2301H361.279L360.291 21.2884ZM359.119 23V15.7273H360.405V23H359.119ZM362.543 23L360.767 20.5178L361.634 19.6122L364.08 23H362.543ZM367.003 23.1065C366.456 23.1065 365.984 22.9929 365.586 22.7656C365.191 22.536 364.887 22.2116 364.673 21.7926C364.46 21.3712 364.354 20.8752 364.354 20.3047C364.354 19.7436 364.46 19.2512 364.673 18.8274C364.889 18.4013 365.19 18.0698 365.575 17.8331C365.961 17.594 366.415 17.4744 366.936 17.4744C367.272 17.4744 367.589 17.5289 367.887 17.6378C368.188 17.7443 368.453 17.91 368.683 18.1349C368.915 18.3598 369.097 18.6463 369.23 18.9943C369.362 19.34 369.428 19.7519 369.428 20.2301V20.6243H364.958V19.7578H368.196C368.194 19.5116 368.141 19.2926 368.036 19.1009C367.932 18.9067 367.787 18.754 367.6 18.6428C367.415 18.5315 367.2 18.4759 366.953 18.4759C366.691 18.4759 366.46 18.5398 366.261 18.6676C366.062 18.7931 365.907 18.9588 365.796 19.1648C365.687 19.3684 365.631 19.5921 365.629 19.8359V20.5923C365.629 20.9096 365.687 21.1818 365.803 21.4091C365.919 21.634 366.081 21.8068 366.289 21.9276C366.498 22.0459 366.741 22.1051 367.021 22.1051C367.208 22.1051 367.377 22.0791 367.529 22.027C367.68 21.9725 367.811 21.8932 367.923 21.7891C368.034 21.6849 368.118 21.5559 368.175 21.402L369.375 21.5369C369.299 21.8542 369.155 22.1312 368.942 22.3679C368.731 22.6023 368.461 22.7846 368.132 22.9148C367.803 23.0426 367.427 23.1065 367.003 23.1065ZM379.486 17.7266C379.453 17.4164 379.313 17.175 379.067 17.0021C378.823 16.8293 378.506 16.7429 378.115 16.7429C377.841 16.7429 377.605 16.7843 377.409 16.8672C377.212 16.95 377.062 17.0625 376.958 17.2045C376.854 17.3466 376.8 17.5088 376.798 17.6911C376.798 17.8426 376.832 17.974 376.901 18.0852C376.972 18.1965 377.068 18.2912 377.189 18.3693C377.309 18.4451 377.443 18.509 377.59 18.5611C377.737 18.6132 377.885 18.657 378.034 18.6925L378.716 18.8629C378.99 18.9268 379.254 19.0133 379.507 19.1222C379.763 19.2311 379.992 19.3684 380.193 19.5341C380.396 19.6998 380.557 19.8999 380.676 20.1342C380.794 20.3686 380.853 20.6432 380.853 20.9581C380.853 21.3842 380.744 21.7595 380.527 22.0838C380.309 22.4058 379.994 22.6579 379.582 22.8402C379.172 23.0201 378.676 23.1101 378.094 23.1101C377.528 23.1101 377.037 23.0225 376.62 22.8473C376.206 22.6721 375.882 22.4164 375.647 22.0803C375.415 21.7441 375.29 21.3345 375.271 20.8516H376.567C376.586 21.1049 376.664 21.3156 376.801 21.4837C376.939 21.6518 377.118 21.7772 377.338 21.8601C377.56 21.9429 377.809 21.9844 378.083 21.9844C378.37 21.9844 378.621 21.9418 378.836 21.8565C379.054 21.7689 379.225 21.6482 379.348 21.4943C379.471 21.3381 379.533 21.1558 379.536 20.9474C379.533 20.758 379.478 20.6018 379.369 20.4787C379.26 20.3532 379.107 20.2491 378.911 20.1662C378.717 20.081 378.489 20.0052 378.229 19.9389L377.402 19.7259C376.803 19.572 376.329 19.3388 375.981 19.0263C375.636 18.7114 375.463 18.2936 375.463 17.7727C375.463 17.3442 375.579 16.969 375.811 16.647C376.045 16.325 376.364 16.0753 376.766 15.8977C377.168 15.7178 377.624 15.6278 378.133 15.6278C378.649 15.6278 379.101 15.7178 379.49 15.8977C379.88 16.0753 380.187 16.3227 380.409 16.6399C380.632 16.9548 380.747 17.317 380.754 17.7266H379.486ZM384.695 17.5455V18.5398H381.559V17.5455H384.695ZM382.333 16.2386H383.619V21.3594C383.619 21.5322 383.645 21.6648 383.697 21.7571C383.751 21.8471 383.822 21.9086 383.91 21.9418C383.998 21.9749 384.095 21.9915 384.201 21.9915C384.282 21.9915 384.355 21.9856 384.421 21.9737C384.49 21.9619 384.542 21.9512 384.578 21.9418L384.794 22.9467C384.726 22.9704 384.627 22.9964 384.499 23.0249C384.374 23.0533 384.22 23.0698 384.038 23.0746C383.716 23.084 383.426 23.0355 383.168 22.929C382.91 22.8201 382.705 22.652 382.553 22.4247C382.404 22.1974 382.331 21.9134 382.333 21.5724V16.2386ZM386.562 23.0781C386.346 23.0781 386.162 23.0024 386.008 22.8509C385.854 22.6993 385.778 22.5147 385.781 22.2969C385.778 22.0838 385.854 21.9015 386.008 21.75C386.162 21.5985 386.346 21.5227 386.562 21.5227C386.77 21.5227 386.951 21.5985 387.105 21.75C387.261 21.9015 387.341 22.0838 387.343 22.2969C387.341 22.4413 387.303 22.5727 387.229 22.6911C387.158 22.8094 387.064 22.9041 386.945 22.9751C386.829 23.0438 386.701 23.0781 386.562 23.0781ZM392.513 23L390.461 15.7273H391.878L393.188 21.0717H393.256L394.655 15.7273H395.944L397.347 21.0753H397.411L398.721 15.7273H400.138L398.085 23H396.786L395.33 17.897H395.273L393.813 23H392.513ZM400.82 23.0781C400.604 23.0781 400.42 23.0024 400.266 22.8509C400.112 22.6993 400.036 22.5147 400.038 22.2969C400.036 22.0838 400.112 21.9015 400.266 21.75C400.42 21.5985 400.604 21.5227 400.82 21.5227C401.028 21.5227 401.209 21.5985 401.363 21.75C401.519 21.9015 401.598 22.0838 401.601 22.2969C401.598 22.4413 401.561 22.5727 401.487 22.6911C401.416 22.8094 401.321 22.9041 401.203 22.9751C401.087 23.0438 400.959 23.0781 400.82 23.0781Z" fill="black"/>
</svg>
